<?xml version="1.0" standalone="no"?>
<!DOCTYPE svg PUBLIC "-//W3C//DTD SVG 1.1//EN" "http://www.w3.org/Graphics/SVG/1.1/DTD/svg11.dtd" >
<svg xmlns="http://www.w3.org/2000/svg" xmlns:xlink="http://www.w3.org/1999/xlink" version="1.1">
<metadata>
Created by FontForge 20201107 at Fri Oct 11 10:23:41 2024
 By 
Copyright 2023 The VIC WA NT School Hand Australia Project Authors (https://github.com/SorkinType/VICWANTSchoolhandAustralia)
</metadata>
<defs>
<font id="EduAUVICWANTArrows-Regular" horiz-adv-x="1017" vert-adv-y="2000" >
  <font-face 
    font-family="Edu AU VIC WA NT Arrows"
    font-weight="400"
    font-stretch="normal"
    units-per-em="2000"
    panose-1="0 0 0 0 0 0 0 0 0 0"
    ascent="1600"
    descent="-400"
    x-height="1001"
    cap-height="1857"
    bbox="-520.182 -857 2301.64 2002"
    underline-thickness="98"
    underline-position="292"
    unicode-range="U+0020-00A0"
  />
<missing-glyph horiz-adv-x="1245" vert-adv-y="0" 
d="M-24 0q-34 0 -46 15.5t-8 44.5l331 1876q6 32 25 49t50 17h1134q48 0 37 -60l-331 -1876q-5 -30 -22 -48t-36 -18h-1134zM50 100h1008l317 1800h-1008z" />
    <glyph glyph-name=".notdef" horiz-adv-x="1245" vert-adv-y="0" 
d="M-24 0q-34 0 -46 15.5t-8 44.5l331 1876q6 32 25 49t50 17h1134q48 0 37 -60l-331 -1876q-5 -30 -22 -48t-36 -18h-1134zM50 100h1008l317 1800h-1008z" />
    <glyph glyph-name=".null" horiz-adv-x="0" vert-adv-y="0" 
 />
    <glyph glyph-name="nonmarkingreturn" horiz-adv-x="666" 
 />
    <glyph glyph-name="space" unicode=" " horiz-adv-x="360" vert-adv-y="0" 
 />
    <glyph glyph-name="zero" unicode="0" horiz-adv-x="1499" vert-adv-y="0" 
d="M675 0q-152 0 -260.5 84t-166.5 241t-58 377q0 165 28 314.5t80 278t124.5 232t163.5 177t196 113.5t221 40q150 0 258.5 -83.5t167 -240.5t58.5 -379q0 -198 -40 -373t-113 -318t-174 -247t-224 -160t-261 -56zM675 19q135 0 255 55t218.5 156t170 242t110.5 313.5
t39 368.5q0 327 -124 506t-341 179q-113 -1 -216 -39.5t-191.5 -111t-159.5 -173.5t-122 -227.5t-78 -274t-27 -311.5q0 -325 123.5 -504t342.5 -179zM669 144q-105 0 -180.5 66t-115.5 187.5t-40 287.5q0 177 32.5 333t92.5 284t143.5 221t185.5 143t219 50q107 0 182 -67
t115 -189.5t40 -289.5q0 -219 -50 -406t-140.5 -326t-214 -216.5t-269.5 -77.5zM669 162q142 0 261.5 75.5t208 211.5t137.5 320t49 401q0 247 -84.5 387.5t-234.5 140.5q-113 0 -212.5 -49t-181 -139.5t-140 -216t-90.5 -279.5t-32 -329q0 -245 85 -384t234 -139z
M1241 1646q-17 0 -29.5 12t-12.5 29t12.5 29.5t29.5 12.5t29.5 -12.5t12.5 -29.5t-12.5 -29t-29.5 -12zM1288 1624l13 8q17 -24 39 -67.5t29 -87.5l13 3l-8 -64l-32 55l13 2q-8 44 -29.5 85.5t-37.5 65.5z" />
    <glyph glyph-name="one" unicode="1" horiz-adv-x="730" vert-adv-y="0" 
d="M273 0q-34 0 -56.5 22t-14.5 68l295 1686q8 44 32 64t57 20q32 0 57 -21t17 -62l-298 -1703q-7 -41 -33.5 -57.5t-55.5 -16.5zM273 19q26 0 46 12t25 46l299 1703q5 32 -13 47t-44 15q-28 0 -46 -16.5t-24 -52.5l-296 -1687q-6 -36 9.5 -51.5t43.5 -15.5zM583 1733
q-18 0 -30 12.5t-12 29.5t12 29.5t30 12.5q17 0 29 -12.5t12 -29.5t-12 -29.5t-29 -12.5zM516 1403l-14 65l12 -2l35 195l22 -2l-35 -196l15 -2z" />
    <glyph glyph-name="two" unicode="2" horiz-adv-x="1336" vert-adv-y="0" 
d="M149 0q-36 0 -57.5 15t-21.5 40.5t27 57.5q141 162 271.5 308t240.5 268t190 211q25 27 74.5 87.5t108.5 138t113.5 157.5t89.5 147t35 105q0 82 -66 127.5t-185 45.5q-112 0 -235.5 -46.5t-209.5 -115.5q-61 -52 -100 -52.5t-59 23.5q-20 23 -20 54t59 82
q70 59 163.5 105t197 72.5t204.5 26.5q194 0 303.5 -81.5t109.5 -227.5q0 -59 -34 -137.5t-88.5 -164.5t-116 -168.5t-118 -150.5t-94.5 -109q-52 -57 -125.5 -137t-157 -172t-167 -185t-155.5 -175h708q50 0 67 -19.5t17 -48.5q0 -31 -17.5 -56t-66.5 -25h-885zM149 19h885
q40 0 52.5 17t12.5 45q0 25 -12 37t-53 12h-748q72 83 159 180t175.5 194t166 182t131.5 145q37 41 93 108t117 148.5t115 166t87.5 161.5t33.5 133q0 138 -103.5 214.5t-291.5 76.5q-99 0 -200.5 -26.5t-192.5 -71.5t-160 -102q-51 -44 -53 -67t16 -43q16 -19 47 -17t86 48
q59 47 136 85t160.5 60t160.5 22q125 0 197 -51t72 -141q0 -40 -35.5 -109.5t-90.5 -150.5t-115 -159.5t-110 -139.5t-75 -88q-80 -89 -190 -211t-240 -267.5t-272 -307.5q-32 -40 -19.5 -61.5t58.5 -21.5zM422 1527q-17 0 -29.5 12.5t-12.5 29.5t12.5 29t29.5 12t29.5 -12
t12.5 -29t-12.5 -29.5t-29.5 -12.5zM702 1740l-42 -47l-9 13q-86 -34 -169 -100l-10 16q81 65 170 101l-8 12z" />
    <glyph glyph-name="three" unicode="3" horiz-adv-x="1377" vert-adv-y="0" 
d="M452 -4q-82 0 -161.5 25.5t-132.5 70.5q-40 32 -50.5 58.5t-5.5 46t13 31.5q13 17 44 20t92 -43q35 -28 90 -43.5t113 -15.5q134 0 255 49.5t215 133.5t148 190.5t54 220.5q0 68 -24 128t-80.5 97t-154.5 37q-67 0 -166 -13t-214 -82q-37 -24 -69.5 -17t-44.5 32
q-8 20 -8 50t44 58q81 51 176.5 116t190 135t172.5 137t125 122.5t47 90.5q0 34 -38 55.5t-104 21.5q-91 0 -224.5 -44t-282.5 -145q-32 -21 -65 -13.5t-46 32.5q-13 22 -13 57.5t62 75.5q146 100 288 143t258 43q101 0 173 -26.5t111 -76t39 -118.5q0 -63 -51.5 -132.5
t-159.5 -159.5t-277 -215q181 28 290.5 -22t159 -148t49.5 -215q0 -147 -67.5 -281.5t-185 -239.5t-268 -166t-316.5 -61zM452 15q164 0 311.5 59t261.5 161.5t180 233.5t66 275q0 92 -30 171t-96 132.5t-172.5 69t-259.5 -21.5q144 106 248 186.5t170 142.5t97.5 113.5
t31.5 98.5q0 64 -35.5 109t-103.5 69.5t-166 24.5q-115 0 -253.5 -42.5t-282.5 -139.5q-52 -35 -53 -62t9 -47q11 -19 35.5 -25t49.5 12q152 102 289 147t229 45q71 0 116 -26.5t45 -69.5q0 -38 -48 -96.5t-127.5 -127t-175.5 -139.5t-192.5 -136.5t-177.5 -115.5
q-34 -23 -35 -45.5t6 -40.5q9 -18 33 -23t55 15q119 72 221 85t169 13q104 0 164.5 -40.5t87 -104.5t26.5 -135q0 -118 -56 -227.5t-152.5 -196.5t-221 -137.5t-261.5 -50.5q-60 0 -118.5 16.5t-95.5 46.5q-54 40 -77.5 39.5t-32.5 -13.5q-11 -16 -11 -43t51 -68
q51 -43 126.5 -67t155.5 -24zM428 1542q-17 0 -29.5 12t-12.5 30q0 17 12.5 29t29.5 12t29.5 -12t12.5 -29q0 -18 -12.5 -30t-29.5 -12zM732 1760l-42 -47l-9 13q-43 -17 -85.5 -42.5t-83.5 -57.5l-10 16q41 33 83.5 58t86.5 43l-8 12z" />
    <glyph glyph-name="four" unicode="4" horiz-adv-x="1339" vert-adv-y="0" 
d="M733 0q-31 3 -50.5 27t-10.5 73l63 348h-486q-30 0 -55.5 16.5t-32.5 47t17 72.5l707 1206q25 43 46 60t59 17q21 0 42.5 -13.5t30.5 -37.5t-11 -58l-678 -1162h387l50 275q8 43 36 59.5t59 12.5q32 -4 52.5 -27.5t12.5 -64.5l-47 -255h304q38 0 61 -21t23 -51
q0 -31 -22.5 -53.5t-61.5 -22.5h-330l-67 -364q-9 -49 -38 -67.5t-60 -16.5zM734 19q27 -2 49 12t29 57l70 378h346q32 0 48.5 16.5t16.5 41.5q0 23 -16.5 38t-48.5 15h-326l52 278q6 33 -8.5 49.5t-40.5 19.5q-28 5 -48.5 -8t-26.5 -47l-53 -292h-435l694 1190
q15 26 9 44.5t-22 28t-33 9.5q-36 0 -51.5 -15t-37.5 -53l-706 -1207q-31 -52 -7 -80t61 -28h508l-67 -370q-7 -40 6 -57.5t38 -19.5zM971 1733q-17 0 -29 12.5t-12 29.5t12 29.5t30 12.5q20 0 30.5 -12.5t10.5 -29.5t-12.5 -29.5t-29.5 -12.5zM792 1474l11 67l10 -7
l103 169l22 -11l-103 -171l11 -5z" />
    <glyph glyph-name="five" unicode="5" horiz-adv-x="1358" vert-adv-y="0" 
d="M524 -4q-95 0 -173.5 29t-131.5 76q-39 42 -39 86q0 31 21.5 44t48.5 13q22 0 39 -6.5t33 -23.5q36 -34 88 -51t114 -17q161 0 287.5 73t200 194t73.5 265q0 93 -47 165.5t-129.5 114t-189.5 41.5q-62 0 -127 -9t-121 -26q-67 -22 -84 -22q-21 0 -38 8.5t-25 25.5t-4 42
l136 752q11 48 37 69t69 21h794q50 0 66.5 -22t16.5 -51q0 -31 -16.5 -51t-66.5 -20h-750l-108 -605q83 23 141 30t139 7q135 0 241.5 -59t168 -164.5t61.5 -243.5q0 -143 -54 -267.5t-152 -218.5t-230.5 -146.5t-288.5 -52.5zM524 15q153 0 282 51t223.5 142t147 212
t52.5 261q0 134 -58 234.5t-160 157t-233 56.5q-58 0 -103 -3t-91 -12t-109 -29l115 649h766q42 0 53.5 13t11.5 40q0 25 -12 40t-53 15h-794q-37 0 -58.5 -16t-29.5 -59l-134 -753q-5 -28 8 -41t39 -13q8 0 24.5 5t53.5 16q58 17 124.5 27t129.5 10q111 0 198 -44.5
t137.5 -121.5t50.5 -174q0 -112 -44 -211t-123 -175.5t-184.5 -120t-229.5 -43.5q-64 0 -120 18.5t-95 54.5q-13 14 -26 20t-33 6q-23 0 -37.5 -9t-14.5 -31q0 -36 34 -73q50 -45 125 -72t167 -27zM1364 1746q-18 0 -30 12.5t-12 29.5t12 29.5t30 12.5q17 0 29 -12.5
t12 -29.5t-12 -29.5t-29 -12.5zM1016 1788l62 25v-12l198 -1v-25h-198v-12z" />
    <glyph glyph-name="six" unicode="6" horiz-adv-x="1383" vert-adv-y="0" 
d="M571 0q-103 0 -182.5 52t-124 146t-44.5 219q0 256 58.5 457t155 355.5t214 269t237.5 197.5t223 142q20 12 37 15t30 3q32 0 51 -18.5t19 -45.5q0 -18 -11 -40t-39 -37q-97 -54 -213 -140t-225.5 -192.5t-191 -224t-110.5 -235.5q79 96 176 147.5t187 71t146 19.5
q97 0 167.5 -35.5t109 -106t38.5 -175.5q0 -132 -37.5 -256.5t-104.5 -231t-156.5 -186.5t-194 -125t-215.5 -45zM571 18q108 0 209.5 44t188.5 122t152.5 182.5t102 226t36.5 251.5q0 150 -78.5 224t-217.5 74q-43 0 -107.5 -11.5t-138.5 -39.5t-145.5 -79t-128.5 -131
q-16 -23 -18.5 -25t2.5 26q16 102 72.5 204t138.5 198t178 180.5t191.5 152.5t176.5 114q23 13 32.5 30t9.5 31q0 20 -13.5 33.5t-38.5 13.5q-13 0 -26.5 -3t-31.5 -14q-102 -59 -221 -141t-235 -195.5t-211.5 -265.5t-153 -350.5t-57.5 -452.5q0 -181 92 -290t240 -109z
M600 130q-72 0 -126.5 47t-85 127.5t-30.5 182.5q0 100 36 184.5t96 151t133.5 112.5t149.5 70.5t142 24.5q109 0 165.5 -52t56.5 -153q0 -106 -29 -207.5t-80 -189.5t-119 -155t-147 -105t-162 -38zM600 148q80 0 156 36.5t142 101.5t116 151t78 185t28 203q0 94 -51.5 141
t-153.5 47q-64 0 -137.5 -23.5t-144 -68.5t-128.5 -109.5t-93 -146t-35 -178.5q0 -148 61.5 -243.5t161.5 -95.5zM1171 1746q-18 0 -30 12.5t-12 29.5t12 29.5t30 12.5q17 0 29 -12.5t12 -29.5t-12 -29.5t-29 -12.5zM879 1597l37 57l7 -11l162 113l16 -19l-164 -114l8 -9z
" />
    <glyph glyph-name="seven" unicode="7" horiz-adv-x="1084" vert-adv-y="0" 
d="M544 10q-34 0 -60 20.5t-14 63.5l444 1615h-692q-44 0 -66 23.5t-22 54.5q0 28 22.5 49t65.5 21h805q45 0 63 -23t9 -55l-463 -1685q-12 -43 -37.5 -63.5t-54.5 -20.5zM544 29q24 0 44 16.5t30 54.5l463 1683q7 26 -5 41t-49 15h-805q-37 0 -53 -15t-16 -37
q0 -25 16.5 -42.5t52.5 -17.5h716l-451 -1637q-9 -33 10 -47t47 -14zM1019 1740q-17 0 -29.5 12t-12.5 30q0 17 12.5 29t29.5 12t29.5 -12t12.5 -29q0 -18 -12.5 -30t-29.5 -12zM662 1788l62 25v-12l198 -1v-25h-198v-12z" />
    <glyph glyph-name="eight" unicode="8" horiz-adv-x="1356" vert-adv-y="0" 
d="M691 0q-93 0 -173 32.5t-140.5 92t-94 140t-33.5 177.5q0 118 34.5 211t116 182.5t222.5 194.5q-50 49 -114.5 118t-112 150.5t-47.5 168.5q0 104 42.5 178t113.5 121t158 69t175 22q83 0 163.5 -15t146 -52t105 -103t39.5 -168q0 -90 -64 -175t-165.5 -167t-213.5 -163
q93 -90 167.5 -179.5t118 -175t43.5 -165.5q0 -111 -35.5 -202t-101 -156t-154.5 -100.5t-196 -35.5zM691 19q104 0 190 33.5t148 96t96 150t34 195.5q0 79 -44.5 164t-120.5 175.5t-173 182.5q115 83 218.5 165t169 166t65.5 172q0 96 -37 158.5t-99.5 98t-140.5 49.5
t-159 14q-116 0 -224 -38t-177.5 -120t-69.5 -214q0 -66 30 -129t75.5 -120t93.5 -105t85 -84q-145 -108 -228 -197t-118.5 -181t-35.5 -209q0 -94 32 -171.5t89.5 -134t134 -87t166.5 -30.5zM699 129q-85 0 -154.5 36t-110 108.5t-40.5 182.5q0 104 35.5 183t110 152
t190.5 159q45 -45 97.5 -100t99.5 -116t77.5 -122t30.5 -118q0 -123 -42.5 -204t-118 -121t-175.5 -40zM699 147q96 0 167.5 37.5t111 114.5t39.5 195q0 70 -47.5 147t-114.5 151.5t-127 133.5q-111 -83 -180.5 -152.5t-102 -144.5t-32.5 -173q0 -158 82 -233.5t204 -75.5z
M739 1093q-28 27 -69.5 68t-82 91.5t-67.5 107.5t-27 117q0 95 53.5 149.5t131.5 77.5t151 23q81 0 154 -11.5t119 -55t46 -138.5q0 -71 -58.5 -141t-152 -141.5t-198.5 -146.5zM741 1117q102 73 191 141.5t143.5 134t54.5 129.5q0 87 -42 126.5t-110.5 49.5t-148.5 10
q-71 0 -144.5 -21.5t-123 -71.5t-49.5 -138q0 -72 40.5 -140t94.5 -125t94 -95zM1070 1706q-17 0 -29 12t-12 29t12 29.5t29 12.5q18 0 30 -12.5t12 -29.5t-12 -29t-30 -12zM973 1761q-64 10 -108.5 10t-91.5 -5l2 -12l-64 10l54 38l2 -13q47 5 97.5 5.5t114.5 -8.5z" />
    <glyph glyph-name="nine" unicode="9" horiz-adv-x="1479" vert-adv-y="0" 
d="M1014 0q-19 0 -36 8.5t-25 26t-4 43.5l204 1210q-170 -292 -338.5 -437t-338.5 -145q-97 0 -146.5 66t-49.5 184q0 211 47 377.5t135.5 283.5t214.5 178.5t284 61.5h397q29 0 42.5 -20t7.5 -50l-299 -1708q-7 -39 -33.5 -59t-61.5 -20zM1014 19q29 0 50 15.5t26 46.5
l300 1709q4 23 -4 36t-28 13h-397q-154 0 -276.5 -60.5t-208 -175t-131 -277.5t-45.5 -369q0 -112 44 -172.5t132 -60.5q118 0 235.5 73t237 220.5t240.5 370.5l-222 -1313q-4 -30 9.5 -43t37.5 -13zM511 837q-50 0 -69 43t-19 94q0 226 65.5 395.5t186.5 263.5t286 94h286
l-7 -36q-81 -168 -159 -304t-152.5 -238.5t-146 -172t-139 -104.5t-132.5 -35zM511 856q77 0 160 53t172 158.5t183.5 263t195.5 365.5l3 12h-264q-157 0 -274 -90.5t-181 -255.5t-64 -388q0 -49 14.5 -83.5t54.5 -34.5zM1330 1743q-17 0 -29.5 12t-12.5 29t12.5 29.5
t29.5 12.5t29 -12.5t12 -29.5t-12 -29t-29 -12zM971 1788l62 25v-12l198 -1v-25h-198v-12z" />
    <glyph glyph-name="A" unicode="A" horiz-adv-x="1259" vert-adv-y="0" 
d="M22 0q-24 0 -44 12.5t-25.5 36.5t11.5 56l874 1678q14 28 27.5 51t65.5 23q40 0 58.5 -17.5t20.5 -42.5l144 -1713q3 -36 -13.5 -60t-59.5 -24q-51 0 -65.5 28t-16.5 50l-68 854h-370l-436 -855q-20 -40 -39 -58.5t-64 -18.5zM22 19q38 0 52.5 13.5t34.5 52.5l441 866
h398l69 -872q2 -21 13 -40.5t51 -19.5q34 0 46 16.5t9 46.5l-145 1713q-1 19 -14.5 31.5t-45.5 12.5q-40 0 -50 -16.5t-27 -47.5l-875 -1679q-20 -38 -3.5 -57.5t46.5 -19.5zM633 1072h286l-37 490zM603 1055l270 530q13 26 18 25t7 -30l41 -525h-336zM759 1476l10 65l11 -5
l90 176l14 -7l-90 -177l11 -5zM926 1733q-17 0 -29 12.5t-12 29.5t12 29.5t29 12.5q18 0 30 -12.5t12 -29.5t-12 -29.5t-30 -12.5z" />
    <glyph glyph-name="B" unicode="B" horiz-adv-x="1447" vert-adv-y="0" 
d="M255 0q-34 0 -50.5 31.5t-10.5 67.5l296 1675q8 46 31 64.5t61 18.5q459 0 677.5 -120.5t185.5 -377.5q-11 -88 -52 -159.5t-137 -123t-271 -80.5q202 -70 294 -201t62 -324q-18 -119 -78 -207.5t-181.5 -147t-323 -87.5t-503.5 -29zM255 19q299 0 498 28t318 84.5
t177 141.5t75 200q31 202 -77 334.5t-347 195.5q206 24 316 73t155.5 121t56.5 165q31 246 -180 361.5t-665 115.5q-33 0 -50 -14t-25 -55l-296 -1675q-5 -29 7.5 -52.5t36.5 -23.5zM342 131l146 831q269 -8 432.5 -72.5t231.5 -168.5t49 -234q-20 -139 -126.5 -216
t-291.5 -108t-441 -32zM364 150q248 2 424 32t276.5 103.5t118.5 203.5q18 124 -45.5 223t-219 160.5t-414.5 71.5zM513 1439l-9 65l12 -2l34 195l16 -2l-34 -196l12 -1zM572 1733q-17 0 -29 12.5t-12 29.5t12 29.5t29 12.5t29.5 -12.5t12.5 -29.5t-12.5 -29.5t-29.5 -12.5z
M505 1055l118 674q165 -1 296 -21.5t221 -64t132.5 -112.5t30.5 -168q-6 -55 -26.5 -102t-68.5 -84.5t-135 -64t-226 -41t-342 -16.5zM526 1073q194 2 326.5 16.5t215 39.5t127.5 60t64 79.5t25 96.5q10 92 -29 156.5t-123 105.5t-208.5 61t-285.5 22z" />
    <glyph glyph-name="C" unicode="C" horiz-adv-x="1437" vert-adv-y="0" 
d="M688 0q-104 0 -205 57t-176.5 168.5t-105.5 274t8 373.5q22 121 57.5 256t94.5 264.5t150.5 234t224 167t314.5 62.5q134 0 261 -63t227 -169q24 -25 27.5 -54.5t-16.5 -52.5q-19 -21 -50 -25t-63 28q-94 98 -193 143.5t-196 45.5q-146 0 -253 -55.5t-181 -147t-122 -203
t-77 -225t-46 -211.5q-30 -176 -12 -310.5t69 -225t121 -136.5t144 -46q137 0 248.5 72t226.5 182q42 37 64 69t61 32q30 0 50.5 -14.5t25.5 -43.5q2 -16 -10.5 -48t-65.5 -91q-122 -134 -269.5 -221t-332.5 -87zM688 19q180 0 323.5 84t264.5 217q51 56 62.5 83.5t9.5 40.5
q-4 22 -18 32.5t-40 10.5q-30 0 -48.5 -28.5t-64.5 -67.5q-115 -111 -229.5 -185.5t-257.5 -74.5q-78 0 -151.5 48t-127 141.5t-73 231.5t11.5 318q17 98 46.5 213.5t79 229.5t125.5 208t185.5 151t260.5 57q100 0 203.5 -47.5t198.5 -148.5q26 -25 49 -22.5t37 19.5
q17 16 13.5 40.5t-21.5 41.5q-103 110 -224.5 168.5t-252.5 58.5q-178 0 -307 -61t-218.5 -164t-147.5 -230t-93 -260t-57 -254q-37 -207 -8.5 -366t101.5 -267t170.5 -163t197.5 -55zM1428 1617q-32 32 -60 53.5t-66 40.5l-5 -10l-46 43l63 -8l-5 -11q39 -19 68.5 -41.5
t61.5 -55.5zM1492 1526q-17 0 -29.5 12.5t-12.5 29.5t12.5 29.5t29.5 12.5t29.5 -12.5t12.5 -29.5t-12.5 -29.5t-29.5 -12.5z" />
    <glyph glyph-name="D" unicode="D" horiz-adv-x="1539" vert-adv-y="0" 
d="M266 0q-43 0 -61 25t-12 62l298 1687q6 35 24.5 59t67.5 24h103q197 0 365.5 -56.5t288.5 -167.5t176 -274.5t28 -376.5q-32 -237 -129 -420t-244 -308t-331 -189.5t-389 -64.5h-185zM266 19h185q202 0 382.5 63t325.5 185.5t240 303t126 414.5q27 209 -26.5 368.5
t-171 267.5t-282 163t-359.5 55h-103q-40 0 -54 -18t-20 -51l-298 -1687q-6 -30 7.5 -47t47.5 -17zM343 131l281 1598h72q164 0 302 -48.5t235.5 -142.5t143.5 -228.5t26 -307.5q-26 -216 -112.5 -379.5t-217 -272.5t-290 -164t-332.5 -55h-108zM364 150h87q170 0 327 53.5
t284.5 160.5t212 267t109.5 373q26 225 -58.5 382.5t-249.5 240.5t-380 83h-56zM514 1439l-9 65l12 -2l34 195l16 -2l-34 -196l12 -1zM573 1733q-17 0 -29 12.5t-12 29.5t12 29.5t29 12.5t29.5 -12.5t12.5 -29.5t-12.5 -29.5t-29.5 -12.5z" />
    <glyph glyph-name="E" unicode="E" horiz-adv-x="1420" vert-adv-y="0" 
d="M266 0q-43 0 -61 25t-12 62l298 1687q6 35 25 59t70 24h908q47 0 64.5 -25t17.5 -52q0 -30 -17.5 -50t-64.5 -20h-854l-113 -637h718q49 0 65.5 -23.5t17.5 -52.5q1 -22 -16.5 -44.5t-65.5 -22.5h-744l-138 -780h853q47 0 65 -19.5t18 -47.5q0 -27 -17.5 -55t-65.5 -28
h-951zM266 19h951q38 0 52 20.5t14 43.5t-13 35.5t-53 12.5h-874l143 817h760q39 0 51.5 15t12.5 34q-1 25 -13 41.5t-52 16.5h-740l119 674h870q39 0 51.5 13t12.5 38q0 23 -13 41t-51 18h-908q-42 0 -56.5 -18t-20.5 -51l-298 -1687q-6 -30 7.5 -47t47.5 -17zM514 1439
l-9 65l12 -2l34 195l16 -2l-34 -196l12 -1zM573 1733q-17 0 -29 12.5t-12 29.5t12 29.5t29 12.5t29.5 -12.5t12.5 -29.5t-12.5 -29.5t-29.5 -12.5z" />
    <glyph glyph-name="F" unicode="F" horiz-adv-x="1266" vert-adv-y="0" 
d="M267 0q-28 0 -46 11.5t-25 31.5t-3 44l298 1687q6 35 25 59t70 24h879q48 0 65.5 -25t17.5 -52q0 -30 -18 -50t-65 -20h-825l-112 -637h686q49 0 66.5 -23.5t17.5 -52.5q0 -22 -17.5 -44.5t-66.5 -22.5h-712l-151 -850q-4 -22 -18 -51t-66 -29zM267 19q41 0 52 21.5
t15 41.5l152 866h728q40 0 53 15t13 34q0 25 -13 41.5t-53 16.5h-708l118 674h841q40 0 52.5 13t12.5 38q0 23 -13 41t-52 18h-879q-42 0 -56.5 -18t-20.5 -51l-298 -1687q-5 -29 8.5 -46.5t47.5 -17.5zM514 1439l-9 65l12 -2l34 195l16 -2l-34 -196l12 -1zM573 1733
q-17 0 -29 12.5t-12 29.5t12 29.5t29 12.5t29.5 -12.5t12.5 -29.5t-12.5 -29.5t-29.5 -12.5z" />
    <glyph glyph-name="G" unicode="G" horiz-adv-x="1553" vert-adv-y="0" 
d="M670 -18q-132 0 -232.5 68.5t-162.5 190t-80 283.5t14 349q89 488 299.5 745.5t541.5 257.5q134 0 256 -59.5t227 -169.5q21 -22 24.5 -54t-17.5 -54q-20 -21 -50.5 -25t-60.5 27q-96 99 -190.5 143.5t-191.5 44.5q-265 0 -435.5 -220t-243.5 -641q-35 -209 -7.5 -376
t108 -264t204.5 -97q100 0 196.5 69t185 195.5t162.5 296.5q16 38 33 64.5t39.5 40.5t53.5 14q44 0 57.5 -23.5t6.5 -63.5l-110 -640q-4 -24 -22 -55t-74 -29q-46 3 -57.5 31.5t-7.5 55.5l40 249q-136 -186 -258 -270t-248 -84zM670 0q125 0 245 85t258 278q20 28 25.5 28.5
t0.5 -31.5l-45 -277q-3 -23 5 -42.5t43 -21.5q45 -2 59 21.5t18 46.5l110 641q6 34 -2.5 49.5t-43.5 15.5q-40 0 -63 -26.5t-46 -81.5q-56 -130 -121.5 -235t-137.5 -180.5t-148 -116t-154 -40.5q-98 0 -171 58t-116 161.5t-53 241t17 296.5q74 426 249 651.5t448 225.5
q100 0 199 -46t196 -148q24 -24 46.5 -21t37.5 19q15 17 13.5 41t-19.5 42q-103 109 -221 166t-249 57q-324 0 -529.5 -251.5t-293.5 -735.5q-32 -184 -14.5 -342.5t77 -277t156.5 -184.5t224 -66zM1428 1632q-32 32 -60 53.5t-66 40.5l-5 -10l-46 42l63 -7l-5 -11
q39 -19 68.5 -41.5t61.5 -55.5zM1483 1549q-17 0 -29.5 12.5t-12.5 29.5t12.5 29.5t29.5 12.5t29 -12.5t12 -29.5t-12 -29.5t-29 -12.5z" />
    <glyph glyph-name="H" unicode="H" horiz-adv-x="1601" vert-adv-y="0" 
d="M266 0q-42 0 -60.5 25t-12.5 62l298 1687q6 35 27.5 59t66.5 24q41 0 56 -27.5t7 -71.5l-121 -685h789l123 715q5 24 26 46.5t65 22.5q46 0 63 -25.5t10 -65.5l-299 -1696q-4 -21 -21 -45.5t-64 -24.5q-54 0 -66 30t-7 57l146 843h-790l-150 -850q-4 -22 -18.5 -51
t-67.5 -29zM266 19q42 0 53 21.5t15 41.5l152 866h827l-149 -865q-4 -23 4.5 -43.5t50.5 -20.5q38 0 51 17.5t16 36.5l299 1696q7 34 -5.5 52t-49.5 18q-35 0 -52 -17t-20 -38l-126 -729h-827l125 706q7 38 -3 58t-42 20q-37 0 -54 -18.5t-23 -50.5l-297 -1687
q-6 -30 7.5 -47t47.5 -17zM514 1439l-9 65l12 -2l34 195l16 -2l-34 -196l12 -1zM573 1733q-17 0 -29 12.5t-12 29.5t12 29.5t29 12.5t29.5 -12.5t12.5 -29.5t-12.5 -29.5t-29.5 -12.5z" />
    <glyph glyph-name="I" unicode="I" horiz-adv-x="609" vert-adv-y="0" 
d="M272 0q-46 0 -63 23t-17 50q0 29 17 53t63 24h63l272 1560h-28q-48 0 -65 24.5t-17 51.5q0 28 17 49.5t65 21.5h253q46 0 63 -21.5t17 -49.5q0 -27 -17 -51.5t-63 -24.5h-59l-275 -1560h38q49 0 66 -23.5t17 -53.5q0 -27 -17 -50t-66 -23h-264zM272 19h264q40 0 52.5 16
t12.5 38q0 25 -12.5 41.5t-52.5 16.5h-59l280 1598h75q37 0 49.5 17t12.5 40q0 24 -12 38.5t-50 14.5h-253q-38 0 -51 -14.5t-13 -38.5q0 -23 13 -40t51 -17h50l-278 -1598h-79q-37 0 -49.5 -16.5t-12.5 -41.5q0 -22 12.5 -38t49.5 -16zM634 1390l-9 65l12 -2l34 195l16 -2
l-35 -196l12 -1zM691 1685q-17 0 -29 12.5t-12 29.5t12 29.5t29 12.5t29.5 -12.5t12.5 -29.5t-12.5 -29.5t-29.5 -12.5z" />
    <glyph glyph-name="J" unicode="J" horiz-adv-x="1147" vert-adv-y="0" 
d="M-90 0q-30 0 -55.5 21.5t-25.5 56.5q0 33 25.5 52.5t55.5 19.5q25 0 80 1t119.5 3.5t121 6.5t85.5 9q101 17 164.5 81.5t101.5 161.5t62 213.5t46 236.5l150 847h-337q-48 0 -65.5 23t-17.5 51q0 27 17.5 50t65.5 23h860q48 0 65 -23t17 -50q0 -28 -17 -51t-65 -23h-362
l-153 -864q-22 -126 -48 -241.5t-63 -214.5t-93 -176t-138 -127.5t-199 -67.5q-21 -3 -72.5 -6t-114.5 -6t-120.5 -5t-89.5 -2zM-90 19q32 0 89 2t119.5 5t113.5 6t72 6q113 17 192.5 65t133.5 123.5t90 172.5t61.5 211t47.5 240l158 879h376q39 0 51.5 16t12.5 39t-13 39
t-51 16h-860q-39 0 -52 -16t-13 -39t13 -39t52 -16h359l-155 -869q-21 -121 -45.5 -239t-64 -217.5t-106 -166t-172.5 -84.5q-29 -5 -86.5 -9t-122.5 -7t-120 -4.5t-80 -1.5t-43.5 -13.5t-18.5 -39.5q0 -28 19 -43.5t43 -15.5zM865 1390l-10 65l12 -2l35 195l15 -2l-34 -196
l12 -1zM923 1685q-17 0 -29.5 12.5t-12.5 29.5t12.5 29.5t29.5 12.5t29 -12.5t12 -29.5t-12 -29.5t-29 -12.5z" />
    <glyph glyph-name="K" unicode="K" horiz-adv-x="1413" vert-adv-y="0" 
d="M266 0q-43 0 -61 33t-12 69l298 1671q6 36 25.5 60t65.5 24q32 0 48 -13t20 -35.5t-1 -50.5l-118 -656l913 717q27 21 51 29.5t44 8.5q30 0 46.5 -20.5t16.5 -40.5q0 -30 -15 -49t-41 -39l-916 -714l637 -843q18 -25 26.5 -42t8.5 -36q0 -31 -25 -52t-54 -21
q-31 0 -52 18.5t-38 40.5l-635 855l-144 -818q-5 -29 -21.5 -62.5t-66.5 -33.5zM266 19q40 0 52.5 26t16.5 54l148 833q3 18 7 18t16 -17l641 -864q17 -20 34 -35t42 -15q23 0 41.5 16t18.5 38q0 25 -31 67l-648 858l931 723q26 20 37 35.5t11 39.5q0 16 -11.5 29.5
t-34.5 13.5q-16 0 -36 -6.5t-46 -26.5l-919 -724q-19 -15 -24 -13t-1 21l119 671q8 38 -2 58t-46 20q-38 0 -53 -18t-21 -51l-298 -1672q-5 -30 9 -54.5t47 -24.5zM515 1439l-10 65l13 -2l34 195l15 -2l-34 -196l12 -1zM574 1733q-17 0 -29.5 12.5t-12.5 29.5t12.5 29.5
t29.5 12.5t29.5 -12.5t12.5 -29.5t-12.5 -29.5t-29.5 -12.5z" />
    <glyph glyph-name="L" unicode="L" horiz-adv-x="1290" vert-adv-y="0" 
d="M266 0q-42 0 -60.5 25.5t-12.5 61.5l295 1687q6 35 27 59t68 24q33 0 49 -13.5t19.5 -35.5t-1.5 -50l-285 -1608h855q42 0 62 -19t20 -48q0 -28 -19 -55.5t-63 -27.5h-954zM266 19h954q35 0 49 20.5t14 43.5t-13.5 35.5t-49.5 12.5h-877l288 1630q8 38 -1 58t-47 20
q-39 0 -55.5 -17.5t-22.5 -51.5l-294 -1687q-4 -29 9 -46.5t46 -17.5zM517 1439l-10 65l12 -2l35 195l15 -2l-34 -196l12 -1zM576 1733q-17 0 -29.5 12.5t-12.5 29.5t12.5 29.5t29.5 12.5t29 -12.5t12 -29.5t-12 -29.5t-29 -12.5z" />
    <glyph glyph-name="M" unicode="M" horiz-adv-x="2337" vert-adv-y="0" 
d="M23 0q-26 0 -46 15t-25.5 42t13.5 63l868 1663q14 29 34 51.5t60 22.5q44 0 62 -21.5t19 -38.5l113 -1493l757 1474q13 23 33 51t71 28q50 0 64 -25.5t16 -61.5l139 -1686q3 -36 -16 -60t-57 -24q-51 0 -67.5 27.5t-18.5 50.5l-112 1466l-759 -1470q-6 -10 -17 -28
t-30 -32t-50 -14q-53 0 -69.5 27.5t-18.5 49.5l-109 1462l-754 -1462q-21 -40 -48.5 -58.5t-51.5 -18.5zM23 19q20 0 42.5 14.5t41.5 51.5l756 1467q15 30 22 30t9 -25l111 -1478q2 -21 14 -40.5t55 -19.5q37 0 54.5 23.5t25.5 39.5l766 1481q15 29 20.5 28t7.5 -29
l112 -1483q2 -20 15 -40t53 -20q30 0 43 17t11 46l-138 1687q-3 34 -13 52t-49 18q-42 0 -58.5 -23t-28.5 -46l-764 -1485q-14 -27 -20 -27t-8 29l-114 1508q-1 14 -14 29t-48 15q-31 0 -47.5 -18t-30.5 -46l-867 -1663q-16 -30 -13.5 -50.5t18 -31.5t36.5 -11zM29 35
q-17 0 -29.5 12.5t-12.5 29.5t12.5 29t29.5 12t29.5 -12t12.5 -29t-12.5 -29.5t-29.5 -12.5zM73 144l-13 8l93 175l-11 5l47 46l-11 -64l-11 5z" />
    <glyph glyph-name="N" unicode="N" horiz-adv-x="1603" vert-adv-y="0" 
d="M266 0q-42 0 -60.5 25.5t-12.5 61.5l295 1687q6 35 24 59t67 24q42 0 66.5 -21t32.5 -41l514 -1436l251 1414q6 36 26.5 60t65.5 24q47 0 59 -29t5 -70l-295 -1678q-4 -22 -16 -51t-63 -29q-33 0 -54.5 17t-29.5 39l-536 1467l-251 -1436q-5 -26 -20.5 -56.5t-67.5 -30.5
zM266 19q41 0 53 23t16 48l257 1460q4 26 9 26t14 -26l544 -1487q7 -19 23 -31.5t43 -12.5q39 0 48.5 21t12.5 42l295 1679q8 38 -1.5 58t-44.5 20q-37 0 -53 -18.5t-21 -50.5l-256 -1441q-4 -23 -9 -23t-13 23l-523 1459q-6 18 -25.5 34.5t-55.5 16.5q-39 0 -53.5 -17.5
t-20.5 -51.5l-295 -1687q-4 -29 9 -46.5t47 -17.5zM270 35q-18 0 -30 12.5t-12 29.5t12 29t30 12q17 0 29 -12t12 -29t-12 -29.5t-29 -12.5zM292 155l-16 3l34 195l-12 2l31 58l9 -64l-12 2z" />
    <glyph glyph-name="O" unicode="O" horiz-adv-x="1525" vert-adv-y="0" 
d="M717 0q-149 0 -250.5 53t-162 145.5t-86.5 213t-23.5 256.5t26.5 275q20 118 59.5 245t102.5 246t152.5 214.5t208.5 152t272 56.5q205 0 325 -90.5t158 -259.5t-4 -404q-16 -93 -46 -210t-75.5 -241t-107.5 -240t-143 -209t-182 -148t-224 -55zM717 19q120 0 218 54
t177 145t139.5 205.5t105 236.5t74 237.5t45.5 208.5q42 231 6 395t-151.5 251t-314.5 87q-149 0 -265.5 -55t-203.5 -149t-148.5 -211t-100.5 -242.5t-59 -242.5q-29 -172 -25 -336t54 -296t159 -210t290 -78zM714 131q-116 0 -191.5 48.5t-117.5 131t-57.5 184.5
t-10.5 210.5t23 208.5q13 74 43.5 178t81 214.5t123.5 206.5t170.5 156t223.5 60q144 0 226 -54t115.5 -146t32.5 -206.5t-23 -235.5q-16 -94 -54.5 -218.5t-97 -253t-133.5 -238.5t-164 -178t-190 -68zM714 150q97 0 183 66.5t159 174.5t130 234.5t95.5 249t54.5 215.5
q21 120 22.5 231t-30.5 199t-110 139t-216 51q-122 0 -217 -58.5t-165.5 -152t-120 -202.5t-79 -211t-43.5 -176q-18 -99 -22.5 -205t10 -205t55 -178t112.5 -125.5t182 -46.5zM1240 1724q-37 27 -72.5 38t-78.5 12v-12l-61 21l62 19l-1 -12q44 -1 82.5 -13.5t77.5 -38.5z
M1312 1646q-18 0 -30 12t-12 29t12 29.5t30 12.5q17 0 29 -12.5t12 -29.5t-12 -29t-29 -12z" />
    <glyph glyph-name="P" unicode="P" horiz-adv-x="1375" vert-adv-y="0" 
d="M267 0q-42 0 -61 25.5t-13 61.5l298 1687q6 35 25 59t70 24q306 0 526.5 -51t332.5 -156t90 -269q-16 -117 -74 -197t-152 -131t-218.5 -78.5t-273.5 -38t-316 -12.5l-150 -844q-4 -22 -18 -51t-66 -29zM267 19q41 0 52 21t15 42l152 860q169 1 318 11.5t273 36.5
t217.5 75t150.5 127t72 192q20 156 -88 256.5t-324 149.5t-519 49q-42 0 -56.5 -18t-20.5 -51l-298 -1687q-4 -29 9 -46.5t47 -17.5zM514 1439l-9 65l12 -2l34 195l16 -2l-35 -196l12 -1zM573 1733q-17 0 -29.5 12.5t-12.5 29.5t12.5 29.5t29.5 12.5t29.5 -12.5t12.5 -29.5
t-12.5 -29.5t-29.5 -12.5zM506 1055l118 674q214 -2 364.5 -27t243 -69t132 -104t30.5 -133q-13 -105 -87 -171.5t-195.5 -102.5t-276.5 -50.5t-329 -16.5zM528 1073q170 2 318.5 17t263.5 50.5t185 98t82 160.5q8 67 -29 123t-125 97t-232 64.5t-351 26.5z" />
    <glyph glyph-name="Q" unicode="Q" horiz-adv-x="1509" vert-adv-y="0" 
d="M1202 -216q-30 -19 -64 -2.5t-58 50.5l-150 217q-47 -23 -100.5 -36.5t-111.5 -13.5q-149 0 -250.5 53t-162 145.5t-86.5 212.5t-23.5 256t26.5 275q20 118 59.5 245t102.5 246.5t152.5 215t208.5 152t272 56.5q205 0 325 -90.5t158 -259.5t-4 -404q-18 -102 -52 -231.5
t-87 -265t-126 -257.5t-169 -208l160 -233q20 -28 17.5 -66t-37.5 -57zM1193 -201q27 15 29 44.5t-15 51.5l-169 247q98 84 172 205t127.5 257.5t87.5 267t52 233.5q42 231 6 395t-151.5 251t-314.5 87q-149 0 -265.5 -55t-203.5 -149t-148.5 -211t-100.5 -242.5t-59 -242.5
q-29 -172 -25 -336t54 -296t159 -210t290 -78q117 0 218 55l160 -231q21 -31 47.5 -43.5t49.5 0.5zM715 130q-116 0 -191.5 48.5t-117.5 130.5t-57.5 184.5t-10.5 211t23 208.5q13 74 43.5 178t81 214.5t123.5 206.5t170.5 156t223.5 60q144 0 226 -54t115.5 -146
t32.5 -206.5t-23 -236.5q-15 -85 -49 -197.5t-84.5 -230.5t-115 -225t-141.5 -182l-62 89q-20 29 -49.5 38t-56.5 -14q-21 -17 -19 -38.5t24 -53.5l66 -96q-36 -22 -74 -33.5t-78 -11.5zM1003 1709q-122 0 -217 -58.5t-165.5 -152t-120 -202.5t-79 -211t-43.5 -176
q-18 -99 -22.5 -205t10 -205t55 -178.5t112.5 -126t182 -46.5q32 0 63.5 8.5t62.5 23.5l-55 80q-25 36 -27.5 65.5t25.5 51.5q35 28 72.5 17t61.5 -44l49 -72q73 76 134 180t109 218t80 222t47 191q21 120 22.5 231t-30.5 199t-110 139t-216 51zM1241 1724q-37 27 -72.5 38
t-78.5 12v-12l-61 21l62 19l-1 -12q44 -1 82.5 -13.5t77.5 -38.5zM1313 1646q-18 0 -30 12t-12 29t12 29.5t30 12.5q17 0 29 -12.5t12 -29.5t-12 -29t-29 -12z" />
    <glyph glyph-name="R" unicode="R" horiz-adv-x="1398" vert-adv-y="0" 
d="M265 0q-43 0 -60.5 32.5t-10.5 71.5l295 1670q6 35 25 59t70 24q311 0 531.5 -51t330 -156.5t87.5 -269.5q-17 -129 -90 -214t-190 -135t-268.5 -73.5t-325.5 -30.5l606 -772q32 -40 35.5 -75.5t-15 -57.5t-52.5 -22q-19 0 -41 12.5t-45 41.5l-654 830l-141 -789
q-5 -32 -20 -63.5t-67 -31.5zM265 19q41 0 52.5 24t16.5 56l141 795q4 20 8 21t19 -17l658 -832q21 -26 39.5 -36.5t33.5 -10.5q27 0 40.5 16.5t9.5 44.5t-32 63l-614 779q-10 13 -7.5 17.5t19.5 5.5q174 7 324.5 29.5t266.5 70.5t187.5 130.5t87.5 208.5
q20 156 -86.5 256.5t-321.5 149.5t-523 49q-42 0 -56.5 -18t-20.5 -51l-295 -1670q-5 -33 7.5 -57t45.5 -24zM512 1439l-9 65l12 -2l34 195l16 -2l-34 -196l12 -1zM571 1733q-17 0 -29 12.5t-12 29.5t12 29.5t29 12.5t29.5 -12.5t12.5 -29.5t-12.5 -29.5t-29.5 -12.5z
M504 1055l118 674q267 -3 443 -44.5t258.5 -115t69.5 -174.5q-13 -103 -88.5 -169t-197 -103t-276 -51.5t-327.5 -16.5zM526 1073q168 2 316.5 17.5t263.5 51t185.5 98t83.5 158.5q12 92 -65.5 160.5t-245.5 108t-426 43.5z" />
    <glyph glyph-name="S" unicode="S" horiz-adv-x="1268" vert-adv-y="0" 
d="M518 0q-171 0 -281.5 65.5t-132.5 192.5q-4 23 9 53.5t50 40.5q19 6 38.5 2t34 -17t19.5 -35q17 -76 79.5 -114t183.5 -38q143 0 245.5 47.5t157.5 136t55 211.5q0 67 -28.5 129.5t-93.5 129.5t-177 146q-75 54 -141 104.5t-117 103t-79.5 113.5t-28.5 137
q0 138 74.5 238.5t212.5 155.5t328 55q182 0 276.5 -58t120.5 -198q3 -22 -2.5 -51t-43.5 -39q-17 -4 -41 -2t-43 13.5t-22 34.5q-8 51 -29.5 85t-72.5 51t-146 17q-212 0 -333.5 -79t-121.5 -216q0 -63 39.5 -117t114.5 -110.5t180 -129.5q101 -71 176 -150.5t117 -166
t42 -177.5q0 -130 -43 -234.5t-123.5 -178t-195 -112.5t-257.5 -39zM518 19q187 0 321.5 65.5t207 188t72.5 291.5q0 88 -40.5 171.5t-114 160.5t-173.5 147q-104 73 -181 131.5t-119 115.5t-42 125q0 146 128.5 230t345.5 84q101 0 155.5 -20t78.5 -58t32 -92
q3 -24 32 -29.5t52 -1.5q28 8 32 29t0 41q-25 133 -113 187t-266 54q-279 0 -438 -115.5t-159 -315.5q0 -72 27.5 -130.5t76.5 -109t114 -100t140 -103.5q114 -80 181 -149.5t96.5 -135t29.5 -135.5q0 -127 -58 -220t-164.5 -143.5t-253.5 -50.5q-127 0 -194.5 42.5
t-86.5 124.5q-6 25 -26 34t-43 2q-29 -8 -39 -31.5t-7 -41.5q21 -120 125.5 -181t270.5 -61zM1246 1547q-17 0 -29.5 12t-12.5 29t12.5 29.5t29.5 12.5t29 -12.5t12 -29.5t-12 -29t-29 -12zM1210 1651q-15 44 -43 67t-69 37l-3 -12l-52 38h65l-5 -11q41 -13 74 -40.5
t47 -71.5z" />
    <glyph glyph-name="T" unicode="T" horiz-adv-x="1221" vert-adv-y="0" 
d="M601 0q-43 0 -62 25.5t-11 61.5l281 1623h-465q-48 0 -65.5 23t-17.5 51q0 27 17 50t66 23h1095q47 0 63.5 -23t16.5 -50q0 -28 -17 -51t-63 -23h-468l-285 -1630q-4 -22 -18.5 -51t-66.5 -29zM601 19q41 0 52.5 21t14.5 42l287 1647h484q38 0 50 16t12 39t-12.5 39
t-49.5 16h-1095q-39 0 -52 -16t-13 -39t12.5 -39t52.5 -16h487l-285 -1646q-7 -29 6.5 -46.5t48.5 -17.5zM833 1390l-9 65l12 -2l34 195l16 -2l-34 -196l12 -1zM891 1687q-17 0 -29 12.5t-12 29.5t12 29t29 12q18 0 30 -12t12 -29t-12 -29.5t-30 -12.5z" />
    <glyph glyph-name="U" unicode="U" horiz-adv-x="1543" vert-adv-y="0" 
d="M412 -13q-87 0 -143 57t-72 176t18 306l224 1239q4 24 16 45t31.5 33.5t44.5 12.5q37 -2 56.5 -28.5t12.5 -60.5l-227 -1250q-12 -68 -21 -135.5t-6 -123t23.5 -89t66.5 -33.5q100 0 218 99t239.5 279t234 423t201.5 531l55 314q6 28 25.5 51t62.5 23q47 0 64.5 -24.5
t11.5 -60.5l-300 -1703q-6 -35 -32 -53.5t-53 -18.5q-34 0 -57 23t-16 67l127 733q-73 -174 -170 -325t-205.5 -265t-218.5 -178t-211 -64zM412 6q126 0 268 105.5t279.5 294.5t249.5 440q26 59 32.5 52t-1.5 -55l-133 -761q-6 -34 11 -50.5t45 -16.5q22 0 42 14t24 43
l301 1702q6 30 -7 47t-51 17q-35 0 -50 -17.5t-20 -41.5l-55 -315q-90 -289 -203.5 -534.5t-237 -427.5t-244.5 -283t-226 -101q-54 0 -78.5 36.5t-28.5 96t5 130.5t21 139l227 1250q5 28 -9 47t-43 21q-30 0 -49 -22t-25 -54l-223 -1239q-32 -183 -18.5 -297t65 -167
t132.5 -53zM458 1439l-9 65l12 -2l34 195l16 -2l-34 -196l12 -1zM517 1733q-17 0 -29 12.5t-12 29.5t12 29.5t29 12.5t29.5 -12.5t12.5 -29.5t-12.5 -29.5t-29.5 -12.5z" />
    <glyph glyph-name="V" unicode="V" vert-adv-y="0" 
d="M410 0q-41 0 -62 29.5t-23 57.5l-93 1686q-1 35 15 59.5t59 24.5q53 0 69.5 -26t17.5 -49l69 -1461l708 1462q18 38 41 56t67 18q24 0 42.5 -12t24 -35t-11.5 -56l-829 -1677q-14 -30 -31 -53.5t-63 -23.5zM410 19q37 0 49.5 17.5t28.5 48.5l829 1676q19 39 4.5 58.5
t-43.5 19.5q-39 0 -57 -14.5t-35 -49.5l-719 -1486q-13 -27 -16.5 -27t-5.5 28l-69 1491q-1 20 -13.5 39t-56.5 19q-34 0 -45 -17t-10 -48l92 -1685q2 -25 18.5 -47.5t48.5 -22.5zM331 1435l-24 61l13 1l-11 198l16 1l11 -198l12 1zM311 1733q-17 0 -29.5 12.5t-12.5 29.5
t12.5 29.5t29.5 12.5t29.5 -12.5t12.5 -29.5t-12.5 -29.5t-29.5 -12.5z" />
    <glyph glyph-name="W" unicode="W" horiz-adv-x="2001" vert-adv-y="0" 
d="M406 0q-41 0 -64.5 25t-25.5 62l-93 1686q-1 35 15 59.5t59 24.5q54 0 70.5 -26t17.5 -49l71 -1457l704 1460q5 11 17.5 28t32 30.5t44.5 13.5q56 0 75 -26t20 -49l74 -1449l702 1450q17 37 41.5 55.5t57.5 18.5q29 0 49.5 -12t26.5 -35t-10 -56l-827 -1677
q-18 -37 -40 -57t-52 -20q-40 0 -60.5 15.5t-22.5 48.5l-75 1487l-713 -1471q-11 -23 -32 -51.5t-62 -28.5zM406 19q32 0 49 23t28 45l722 1490q13 27 18 28.5t6 -27.5l77 -1513q2 -25 16 -35.5t49 -10.5q25 0 42 16t33 49l827 1677q20 39 3.5 58.5t-52.5 19.5
q-28 0 -47.5 -15.5t-35.5 -48.5l-708 -1462q-13 -28 -19.5 -29t-8.5 30l-74 1467q-1 20 -16.5 39t-60.5 19q-30 0 -50 -24t-27 -38l-714 -1480q-12 -25 -16.5 -26t-6.5 23l-73 1487q-1 20 -13.5 39t-56.5 19q-34 0 -45 -17t-10 -48l92 -1685q5 -70 72 -70zM320 1435l-24 61
l13 1l-11 198l16 1l11 -198l12 1zM300 1733q-17 0 -29.5 12.5t-12.5 29.5t12.5 29.5t29.5 12.5t29.5 -12.5t12.5 -29.5t-12.5 -29.5t-29.5 -12.5z" />
    <glyph glyph-name="X" unicode="X" horiz-adv-x="1102" vert-adv-y="0" 
d="M993 10q-20 -10 -45 -9t-47 15.5t-33 44.5l-263 702l-529 -728q-17 -23 -40.5 -31.5t-47 -3.5t-41.5 19q-20 17 -23.5 45.5t17.5 57.5l598 820l-300 799q-16 43 -6 72.5t40 40.5q20 8 42 5.5t41 -17t29 -43.5l266 -703l525 722q18 24 41.5 33.5t47 6.5t39.5 -17
q21 -16 24 -48t-22 -67l-589 -808l304 -806q13 -35 4.5 -62t-32.5 -40zM985 27q41 21 19 78l-307 815l594 817q22 29 19.5 53t-18.5 36q-19 17 -49 13.5t-52 -32.5l-528 -725q-12 -16 -16.5 -16t-9.5 14l-269 713q-14 36 -40 45t-49 -1q-23 -8 -30 -30.5t7 -59.5l303 -808
l-604 -828q-16 -23 -14 -44t18 -34q15 -12 33.5 -16t37 3t32.5 26l534 736q9 12 13 12t9 -13l268 -713q14 -37 44 -45.5t55 4.5zM432 1457l-42 51l12 3l-71 186l14 5l71 -184l12 5zM309 1733q-18 0 -30 12.5t-12 29.5t12 29.5t30 12.5q17 0 29 -12.5t12 -29.5t-12 -29.5
t-29 -12.5z" />
    <glyph glyph-name="Y" unicode="Y" vert-adv-y="0" 
d="M486 0q-42 0 -60.5 25.5t-12.5 61.5l147 836l-315 818q-7 17 -10 26.5t-3 24.5q0 26 23 45.5t51 19.5q35 0 57 -17.5t32 -44.5l269 -699l523 722q17 23 37.5 31t43.5 8q17 0 34.5 -9.5t29 -24.5t11.5 -34q0 -26 -25 -63l-594 -808l-147 -839q-4 -22 -20 -50.5t-71 -28.5z
M486 19q44 0 56.5 21t16.5 42l147 843l597 812q22 31 22 52q0 20 -18.5 35t-38.5 15t-36 -6t-30 -26l-531 -732q-7 -10 -10.5 -10t-8.5 10l-274 713q-9 23 -26 37t-46 14q-23 0 -39.5 -14.5t-16.5 -32.5q0 -12 2 -19.5t9 -25.5l318 -822l-148 -841q-5 -30 8.5 -47.5
t46.5 -17.5zM437 1457l-42 51l12 3l-71 186l14 5l71 -184l12 5zM314 1733q-17 0 -29.5 12.5t-12.5 29.5t12.5 29.5t29.5 12.5t29.5 -12.5t12.5 -29.5t-12.5 -29.5t-29.5 -12.5z" />
    <glyph glyph-name="Z" unicode="Z" horiz-adv-x="1102" vert-adv-y="0" 
d="M8 0q-28 0 -46.5 10t-27.5 26t-9 32q0 12 3 26.5t14 30.5l1143 1585h-778q-47 0 -65 20t-18 50q0 27 18 52t65 25h919q42 0 62 -16.5t20 -48.5q0 -15 -7.5 -33.5t-18.5 -34.5l-1134 -1574h800q48 0 65.5 -21t17.5 -49t-17.5 -54t-65.5 -26h-940zM8 19h940q38 0 51.5 18
t13.5 43q0 23 -13 37t-52 14h-806q-21 0 -23 3.5t9 19.5l1139 1580q23 32 23 58q0 25 -14.5 36t-49.5 11h-919q-38 0 -51 -18t-13 -41q0 -25 12.5 -38t51.5 -13h788q18 0 20 -3t-8 -17l-1150 -1595q-15 -22 -15 -46q0 -19 15 -34t51 -15zM312 1740q-17 0 -29 12t-12 30
q0 17 12 29t29 12t29.5 -12t12.5 -29q0 -18 -12.5 -30t-29.5 -12zM592 1767v12h-198v16h198v12l62 -21z" />
    <glyph glyph-name="a" unicode="a" horiz-adv-x="1046" vert-adv-y="0" 
d="M280 -18q-73 0 -126.5 54.5t-74.5 154t3 233.5q32 177 113.5 306.5t188.5 200t217 70.5h307q41 0 48.5 -33.5t0.5 -74.5l-143 -822q-1 -7 -7.5 -24t-25.5 -32t-60 -15q-52 0 -62.5 29t-7.5 45l49 277q-114 -182 -220 -275.5t-200 -93.5zM280 0q90 0 193.5 93.5
t218.5 278.5q20 32 26 21.5t3 -27.5l-51 -296q-3 -14 4.5 -33t46.5 -19q50 0 62 23t13 33l144 822q7 38 1.5 62t-33.5 24h-307q-106 0 -209.5 -68t-181.5 -193.5t-110 -299.5q-23 -129 -4 -223.5t68 -146t116 -51.5zM303 111q-43 0 -73 85.5t-6 227.5q26 138 88 238
t142 154.5t156 54.5h201l-19 -106q-79 -185 -169 -333.5t-173.5 -234.5t-146.5 -86zM303 130q57 0 137.5 83.5t168 228t165.5 328.5l16 83h-180q-72 0 -148 -52t-136 -149t-85 -231q-22 -136 3.5 -213.5t58.5 -77.5zM597 905l-62 19l62 20v-12h198v-15h-198v-12zM877 878
q-17 0 -29.5 12t-12.5 29q0 18 12.5 30t29.5 12t29 -12t12 -30q0 -17 -12 -29t-29 -12z" />
    <glyph glyph-name="b" unicode="b" horiz-adv-x="1082" vert-adv-y="0" 
d="M411 -12q-116 0 -193 58t-108.5 158t-9.5 226l236 1344q7 39 37.5 61t59.5 22q32 0 53 -20t13 -67l-238 -1343q-22 -121 24.5 -205t147.5 -84q84 0 153 61t110.5 165.5t41.5 233.5q0 110 -19 184t-37 127q-5 17 -5.5 45t18 47t68.5 8l323 -52q43 -7 59 -30.5t16 -45.5
q0 -50 -39.5 -65t-89.5 -7l-185 32q20 -81 30 -146.5t10 -125.5q0 -166 -64 -297.5t-172 -207.5t-240 -76zM411 6q127 0 230.5 73t165.5 200t62 290q0 63 -11 131t-34 157q-1 5 1 6t9 -1l200 -34q47 -7 78 3.5t31 49.5q0 19 -12.5 35.5t-47.5 22.5l-323 52q-38 8 -52 -5.5
t-14 -34.5t5 -36q18 -53 38 -129t20 -188q0 -133 -44 -241.5t-117.5 -173t-162.5 -64.5q-74 0 -122 42.5t-66 113.5t-3 155l239 1343q7 38 -7.5 52t-40.5 14q-25 0 -49 -18t-30 -51l-236 -1343q-22 -122 7 -217.5t102.5 -149.5t183.5 -54zM359 1439l-9 65l12 -2l34 195
l16 -2l-34 -196l12 -1zM421 1733q-17 0 -29.5 12.5t-12.5 29.5t12.5 29.5t29.5 12.5t29.5 -12.5t12.5 -29.5t-12.5 -29.5t-29.5 -12.5z" />
    <glyph glyph-name="c" unicode="c" horiz-adv-x="891" vert-adv-y="0" 
d="M349 -12q-119 0 -189.5 77.5t-70.5 210.5q0 157 37 291.5t104 234.5t157.5 155.5t197.5 55.5q69 0 143 -9.5t124 -29.5q27 -9 41.5 -26t17 -38.5t-8.5 -43.5q-15 -37 -46 -42t-69 10q-40 14 -97.5 22.5t-104.5 8.5q-92 0 -166.5 -74t-119 -201t-48.5 -286q-1 -74 28 -121
t82 -47q73 0 154.5 84.5t150.5 225.5q14 25 42.5 28t59.5 -12q17 -9 28 -24.5t14 -32.5t-4 -31q-90 -178 -212.5 -282t-244.5 -104zM349 6q117 0 234.5 100.5t205.5 275.5q8 14 -0.5 33t-29.5 30q-26 14 -47 12t-30 -19q-70 -144 -156 -232t-165 -88q-63 0 -96.5 53.5
t-32.5 132.5q4 161 51 292t125.5 208.5t176.5 77.5q48 0 107.5 -8.5t101.5 -22.5q34 -13 56.5 -9.5t34.5 31.5q9 18 7.5 34.5t-13 29.5t-33.5 20q-49 20 -121 28.5t-140 8.5q-137 0 -245 -93.5t-170.5 -255.5t-62.5 -369q0 -127 64.5 -198.5t177.5 -71.5zM752 915
q-48 13 -96.5 18.5t-97.5 -2.5l2 -12l-65 9l58 30l2 -12q49 8 101 2.5t100 -18.5zM832 859q-18 0 -30 12.5t-12 29.5t12 29.5t30 12.5q17 0 29 -12.5t12 -29.5t-12 -29.5t-29 -12.5z" />
    <glyph glyph-name="d" unicode="d" horiz-adv-x="1040" vert-adv-y="0" 
d="M289 -12q-125 0 -183.5 118.5t-21.5 320.5q33 178 109 308.5t188 202t253 71.5h188l139 788q6 35 33.5 48.5t52.5 11.5q34 -2 58 -25.5t17 -61.5l-305 -1702q-7 -37 -28.5 -52.5t-47.5 -15.5q-22 0 -42.5 11t-32 32t-6.5 49l46 255q-56 -93 -124.5 -175t-143 -133
t-149.5 -51zM289 6q72 0 144.5 51.5t139.5 133.5t123 175q23 38 30 34t1 -41l-48 -271q-6 -33 14 -51t48 -18q22 0 37.5 11t20.5 40l305 1703q6 30 -12 47t-47 19q-21 2 -40.5 -8t-24.5 -36l-142 -804h-204q-204 0 -344 -152t-188 -414q-35 -196 18 -307.5t169 -111.5z
M313 119q-58 0 -83.5 83t-2.5 225q38 209 146.5 330t269.5 121h175l-20 -111q-52 -115 -112 -230t-123 -209.5t-126.5 -151.5t-123.5 -57zM313 138q56 0 116 55t121 147t119.5 204.5t111.5 227.5l15 88h-153q-154 0 -257 -116t-141 -319q-22 -138 -0.5 -212.5t68.5 -74.5z
M551 902l-65 4l54 35l4 -12q48 12 100 13.5t101 1.5v-15q-49 0 -99.5 -1t-97.5 -14zM827 894q-17 0 -29.5 12t-12.5 29t12.5 29.5t29.5 12.5t29.5 -12.5t12.5 -29.5t-12.5 -29t-29.5 -12z" />
    <glyph glyph-name="e" unicode="e" horiz-adv-x="821" vert-adv-y="0" 
d="M335 -12q-117 0 -186 86.5t-69 234.5q0 138 42.5 264.5t116.5 225.5t168.5 156.5t199.5 57.5q97 0 157 -47t60 -139q0 -67 -34.5 -122t-87 -98t-108 -76t-98.5 -57q-55 -31 -126 -68.5t-124 -65.5q-3 -28 -3 -57q0 -67 25.5 -107t69.5 -40q51 0 110 38.5t114 104.5
q44 55 79 64.5t61 -10.5q16 -10 24 -29t0 -48.5t-41 -72.5q-67 -90 -162 -142.5t-188 -52.5zM335 6q89 0 179.5 50.5t156.5 137.5q44 57 42 84t-22 40q-21 17 -48 8t-67 -59q-57 -68 -119.5 -108.5t-118.5 -40.5q-52 0 -82 46.5t-30 118.5q0 17 0.5 34.5t1.5 34.5
q54 28 128 67t131 70q42 24 96.5 56.5t105.5 74t84 93t33 114.5q0 85 -53.5 126t-145.5 41q-100 0 -191.5 -55.5t-163 -151t-112.5 -219t-41 -259.5q0 -143 63.5 -223t172.5 -80zM246 386q-17 0 -29.5 12t-12.5 29t12.5 29.5t29.5 12.5t29.5 -12.5t12.5 -29.5t-12.5 -29
t-29.5 -12zM322 458l-8 14l173 96l-6 10l65 12l-46 -47l-5 11zM250 487q26 111 77 200.5t119 142t144 52.5q43 0 66.5 -19.5t23.5 -44.5q0 -32 -36.5 -72t-96.5 -82.5t-129 -83.5q-41 -24 -85 -48t-83 -45zM278 523q32 17 65.5 35.5t65.5 37.5q103 60 178 120.5t75 101.5
q0 18 -18 32.5t-54 14.5q-99 0 -183.5 -97t-128.5 -245z" />
    <glyph glyph-name="f" unicode="f" horiz-adv-x="536" vert-adv-y="0" 
d="M16 -852q-28 3 -45.5 18.5t-24.5 36.5t-5 39l266 1616h-139q-48 0 -69.5 23t-21.5 52q0 28 16.5 50t65.5 22h172l85 511q21 128 73.5 201.5t122.5 104.5t143 31q41 0 97 -14.5t90 -39.5q17 -12 35 -39t-4 -68q-22 -43 -57 -45.5t-51 8.5q-25 17 -57 28.5t-55 11.5
q-68 0 -116 -46t-68 -168l-77 -476h161q47 0 66.5 -21.5t19.5 -50.5q0 -28 -14.5 -51.5t-61.5 -23.5h-196l-267 -1631q-4 -26 -22 -54.5t-62 -24.5zM18 -833q33 -4 47 17.5t18 44.5l269 1648h211q37 0 47.5 15.5t10.5 40.5q0 24 -14 39t-54 15h-183l82 497
q20 128 73.5 178.5t127.5 50.5q26 0 61.5 -12t60.5 -30q13 -9 38 -6.5t44 36.5q16 32 3 52.5t-28 30.5q-33 23 -85 36.5t-92 13.5q-70 0 -136 -29t-115 -99t-70 -193l-87 -526h-188q-39 0 -51 -15t-12 -39t16 -40t56 -16h162l-270 -1638q-4 -22 10 -46t48 -26zM510 1737
l50 41l4 -12q40 17 79.5 19.5t83.5 -11.5l-3 -16q-45 14 -79.5 12t-75.5 -18l6 -11zM799 1688q-18 0 -30 12.5t-12 29.5t12 29t30 12q17 0 29 -12t12 -29t-12 -29.5t-29 -12.5z" />
    <glyph glyph-name="g" unicode="g" horiz-adv-x="1064" vert-adv-y="0" 
d="M303 -857q-91 0 -172 26t-135 69q-25 20 -26 52t21 57q17 22 47 22t56 -18q38 -28 96 -44t117 -16q90 0 150.5 44t100 137t65.5 240l110 630q-57 -92 -125.5 -175t-143.5 -135t-151 -52q-75 0 -129.5 53.5t-76 152t2.5 233.5q33 178 110 308.5t186.5 202t239.5 71.5h274
q47 -1 64 -25t9 -65l-214 -1214q-52 -294 -167 -424t-309 -130zM303 -838q186 0 296 124.5t162 413.5l214 1215q6 34 -5.5 50t-49.5 17h-274q-126 0 -231.5 -68.5t-179.5 -195.5t-106 -303q-35 -196 22.5 -306.5t161.5 -110.5q74 0 147 52.5t140.5 136t123.5 175.5
q22 37 29.5 34.5t0.5 -40.5l-114 -647q-19 -112 -47 -194.5t-67.5 -136t-93.5 -80t-125 -26.5q-61 0 -122 17.5t-102 46.5q-21 15 -43.5 15t-34.5 -15q-17 -22 -16.5 -45.5t19.5 -37.5q51 -42 129 -66.5t166 -24.5zM337 111q-46 0 -77 82.5t-6 225.5q38 209 147.5 330
t253.5 121h189l-20 -112q-40 -99 -97.5 -211.5t-124.5 -211.5t-135.5 -161.5t-129.5 -62.5zM337 129q56 0 121 61t130 157.5t122 206.5t97 208l15 89h-167q-137 0 -241.5 -116t-142.5 -319q-22 -137 4 -212t62 -75zM630 905l-62 19l62 20v-12h198v-15h-198v-12zM909 878
q-17 0 -29 12t-12 29q0 18 12 30t29 12q18 0 30 -12t12 -30q0 -17 -12 -29t-30 -12z" />
    <glyph glyph-name="h" unicode="h" horiz-adv-x="1092" vert-adv-y="0" 
d="M162 0q-35 0 -50.5 14t-18.5 32t-2 29l296 1698q8 43 33 63.5t71 20.5q41 0 53.5 -24t5.5 -63l-168 -954q79 104 159.5 154.5t177.5 50.5q105 0 171 -52t92 -135t9 -176l-106 -590q-1 -7 -5.5 -23.5t-22 -30.5t-59.5 -14q-53 0 -62.5 30.5t-8.5 49.5l105 591
q8 47 1.5 93.5t-35 77t-88.5 30.5q-80 0 -168.5 -72.5t-204.5 -240.5l-85 -487q-1 -7 -6.5 -24.5t-24 -32.5t-59.5 -15zM162 19q49 0 60 23t12 33l85 491q119 173 212.5 248.5t178.5 75.5q68 0 101 -35t40.5 -86.5t-1.5 -101.5l-104 -590q-2 -17 5 -37.5t47 -20.5
q49 0 58.5 20t11.5 31l104 591q16 89 -7.5 167t-85 126.5t-160.5 48.5q-97 0 -178 -54.5t-164 -167.5q-16 -23 -20 -22t0 23l174 992q8 34 -0.5 49.5t-39.5 15.5q-40 0 -60 -16t-27 -53l-295 -1698q-1 -15 6 -34t47 -19zM410 1439l-9 65l12 -2l34 195l16 -2l-34 -196l12 -1z
M473 1733q-17 0 -29.5 12.5t-12.5 29.5t12.5 29.5t29.5 12.5t29.5 -12.5t12.5 -29.5t-12.5 -29.5t-29.5 -12.5z" />
    <glyph glyph-name="i" unicode="i" horiz-adv-x="460" vert-adv-y="0" 
d="M161 0q-51 0 -62 28t-7 47l146 847q5 27 17.5 44.5t34 26t52.5 8.5q41 0 52.5 -22.5t5.5 -59.5l-148 -848q-1 -7 -6.5 -24t-24 -32t-60.5 -15zM161 19q50 0 60.5 22.5t12.5 32.5l148 847q6 35 -2 48.5t-38 13.5q-27 0 -44.5 -6t-27.5 -20t-14 -38l-146 -849
q-3 -14 4.5 -32.5t46.5 -18.5zM259 585l-10 64l12 -1l35 195l15 -3l-34 -195l12 -2zM321 879q-18 0 -30 12t-12 29q0 18 12 30t30 12q17 0 29 -12t12 -30q0 -17 -12 -29t-29 -12zM389 1233q-39 0 -66.5 28t-27.5 65q0 36 25.5 63t68.5 27q37 0 66.5 -25t29.5 -65
q0 -37 -28.5 -65t-67.5 -28zM389 1251q32 0 55 22.5t23 52.5q0 32 -23 52t-55 20q-36 0 -56 -21.5t-20 -50.5q0 -30 22 -52.5t54 -22.5z" />
    <glyph glyph-name="j" unicode="j" horiz-adv-x="545" vert-adv-y="0" 
d="M-188 -857q-90 0 -172.5 26t-133.5 70q-24 19 -26 51t18 58q19 21 48 21.5t54 -18.5q41 -27 97 -43.5t117 -16.5q89 0 149 44.5t99 138.5t65 240l212 1205q5 27 17.5 45t34.5 27.5t53 9.5q41 0 53 -23t5 -62l-214 -1217q-52 -294 -168.5 -425t-307.5 -131zM-188 -838
q185 0 296.5 125.5t161.5 414.5l214 1217q6 35 -1.5 49t-38.5 14q-27 0 -45 -6.5t-28 -21t-14 -38.5l-212 -1205q-20 -112 -48 -194.5t-67 -137t-92 -81t-124 -26.5q-63 0 -122 18t-102 46q-22 15 -43 15t-35 -15q-16 -21 -14.5 -45t20.5 -38q50 -42 128 -66.5t166 -24.5z
M363 585l-9 64l12 -1l34 195l16 -3l-34 -195l12 -2zM423 879q-17 0 -29.5 12t-12.5 29q0 18 12.5 30t29.5 12t29 -12t12 -30q0 -17 -12 -29t-29 -12zM491 1233q-40 0 -67.5 28.5t-27.5 65.5q0 36 26 63.5t69 27.5q37 0 67 -25.5t30 -65.5q0 -37 -28.5 -65.5t-68.5 -28.5z
M491 1251q33 0 56 22.5t23 53.5q0 32 -23.5 52.5t-55.5 20.5q-36 0 -56.5 -22t-20.5 -51q0 -31 22.5 -53.5t54.5 -22.5z" />
    <glyph glyph-name="k" unicode="k" horiz-adv-x="1034" vert-adv-y="0" 
d="M872 -6q-31 0 -53.5 18t-39.5 38l-220 314q-27 37 -40 64.5t-13 46.5q0 22 12.5 43.5t43.5 37.5q135 83 202 150t65 127q0 12 -5.5 23.5t-27.5 11.5q-43 0 -101 -28t-126 -98t-141 -195.5t-147 -321.5l-27 -147q-8 -44 -34 -63t-62 -19q-21 0 -37.5 10.5t-24 30
t-3.5 44.5l296 1686q7 39 29.5 63t58.5 24q38 0 61 -21t14 -71l-186 -1056q55 93 131.5 163t163.5 109.5t173 39.5q37 0 72.5 -12.5t58.5 -49.5t23 -110q0 -70 -33.5 -137t-99.5 -130.5t-165 -123.5l232 -328q12 -16 16.5 -31t4.5 -28q0 -19 -9.5 -36t-25.5 -27.5t-36 -10.5
zM872 12q23 0 38 16.5t15 39.5t-18 49l-243 344q102 60 170 122.5t102 128.5t34 134q0 66 -19.5 99t-50.5 43.5t-66 10.5q-84 0 -169.5 -39t-160 -109t-128.5 -163q-18 -31 -27 -27t-4 30l189 1074q8 41 -8.5 55.5t-48.5 14.5q-29 0 -46 -18.5t-23 -52.5l-296 -1686
q-6 -31 7.5 -47t38.5 -16q32 0 52.5 14.5t25.5 51.5l27 148q75 199 150 327t145.5 200t131.5 101t106 29q32 0 42 -19t10 -34q2 -66 -69 -138t-208 -155q-26 -16 -36.5 -31.5t-10.5 -33.5q0 -15 12.5 -39.5t37.5 -59.5l220 -315q16 -19 34.5 -34t43.5 -15zM412 1439l-9 65
l12 -2l34 195l16 -2l-34 -196l12 -1zM475 1733q-17 0 -29.5 12.5t-12.5 29.5t12.5 29.5t29.5 12.5t29.5 -12.5t12.5 -29.5t-12.5 -29.5t-29.5 -12.5z" />
    <glyph glyph-name="l" unicode="l" horiz-adv-x="462" vert-adv-y="0" 
d="M168 0q-21 0 -40.5 10t-30 29.5t-5.5 47.5l300 1703q6 37 29 52t48 15q35 0 59.5 -22.5t19.5 -62.5l-300 -1703q-9 -35 -31.5 -52t-48.5 -17zM168 19q21 0 38 12.5t24 41.5l300 1702q5 31 -14 47.5t-47 16.5q-21 0 -37.5 -11.5t-21.5 -40.5l-300 -1704q-6 -32 12.5 -48
t45.5 -16zM409 1439l-9 65l12 -2l34 195l16 -2l-34 -196l12 -1zM471 1733q-17 0 -29 12.5t-12 29.5t12 29.5t29 12.5t29.5 -12.5t12.5 -29.5t-12.5 -29.5t-29.5 -12.5z" />
    <glyph glyph-name="m" unicode="m" horiz-adv-x="1683" vert-adv-y="0" 
d="M163 0q-53 0 -63 28.5t-8 45.5l149 845q5 26 17 44.5t33 28t51 9.5q41 0 53 -24t5 -62l-17 -99q71 98 140.5 147.5t163.5 49.5q119 0 187 -68t83 -166q80 117 153.5 175.5t176.5 58.5q105 0 170.5 -51.5t91 -134t8.5 -175.5l-103 -586q-2 -6 -7 -22t-23 -30t-59 -14
q-52 0 -62 30t-8 49l103 586q9 47 2.5 93t-34.5 76.5t-86 30.5q-79 0 -154 -70t-187 -235l-87 -493q-1 -7 -6 -23t-22.5 -30t-58.5 -14q-53 0 -62.5 30t-8.5 49l105 586q9 47 2 93t-35.5 76.5t-87.5 30.5q-79 0 -154.5 -71t-186.5 -238l-86 -485q-1 -6 -6 -23.5t-23 -32.5
t-59 -15zM163 19q48 0 58.5 22.5t12.5 32.5l87 489q113 170 192.5 245t164.5 75q67 0 99.5 -35t40 -86.5t-1.5 -100.5l-104 -585q-1 -16 6 -36.5t47 -20.5q49 0 58 20t11 30l88 498q113 168 193 242t165 74q66 0 98 -35t39.5 -86.5t-1.5 -100.5l-104 -585q-1 -16 6 -36.5
t47 -20.5q48 0 58 19.5t13 31.5l104 586q16 89 -8 166t-85 124.5t-160 47.5t-169.5 -57t-151.5 -176q-9 -13 -15.5 -19.5t-9.5 17.5q-10 100 -74 167.5t-180 67.5q-94 0 -161.5 -51.5t-142.5 -159.5q-13 -18 -20 -16t-3 20l23 131q6 34 -2 49.5t-39 15.5q-26 0 -43 -7.5
t-26.5 -22.5t-13.5 -38l-149 -844q-3 -15 5 -33.5t48 -18.5zM264 585l-9 64l12 -1l34 195l16 -3l-34 -195l12 -2zM323 879q-17 0 -29 12t-12 29q0 18 12 30t29 12q18 0 30 -12t12 -30q0 -17 -12 -29t-30 -12z" />
    <glyph glyph-name="n" unicode="n" horiz-adv-x="1089" vert-adv-y="0" 
d="M163 0q-53 0 -63 29t-8 45l149 845q5 26 17 44.5t33 28t51 9.5q41 0 53.5 -24t5.5 -62l-18 -104q77 101 156.5 151.5t176.5 50.5q104 0 169 -51.5t90 -134t9 -175.5l-104 -585q-1 -7 -5.5 -23t-22 -30t-59.5 -14q-52 0 -62 30t-9 49l105 586q8 47 1.5 93t-35 76.5
t-87.5 30.5q-79 0 -166.5 -71t-202.5 -238l-85 -485q-1 -7 -6.5 -24t-23.5 -32t-59 -15zM163 19q48 0 58.5 22.5t12.5 32.5l87 489q116 170 208 245t177 75q67 0 100 -35t40.5 -86.5t-1.5 -100.5l-104 -585q-1 -16 6 -36.5t46 -20.5q49 0 58.5 20t11.5 30l103 587
q16 89 -7 166t-84 124.5t-159 47.5q-95 0 -171.5 -49t-153.5 -153q-39 -51 -30 3l22 123q5 34 -2.5 49.5t-38.5 15.5q-26 0 -43 -7.5t-26.5 -22.5t-13.5 -38l-149 -844q-3 -15 5 -33.5t48 -18.5zM264 585l-9 64l12 -1l34 195l16 -3l-34 -195l12 -2zM325 879q-17 0 -29 12
t-12 29q0 18 12 30t29 12t29.5 -12t12.5 -30q0 -17 -12.5 -29t-29.5 -12z" />
    <glyph glyph-name="o" unicode="o" horiz-adv-x="962" vert-adv-y="0" 
d="M421 -12q-152 0 -242 102t-90 274q0 185 59.5 331.5t162.5 232t234 85.5q161 0 254.5 -97.5t93.5 -266.5q0 -141 -35 -261.5t-99 -210t-150 -139.5t-188 -50zM421 6q98 0 181 48t144 135t95 204t34 256q0 163 -87.5 254t-242.5 91q-125 0 -224.5 -82t-156.5 -224.5
t-57 -323.5q0 -166 84.5 -262t229.5 -96zM421 118q-89 0 -140 76t-51 197q0 137 41 248t112.5 177t161.5 66q95 0 152.5 -65.5t57.5 -169.5q0 -148 -43.5 -267.5t-119 -190.5t-171.5 -71zM421 136q90 0 161 67.5t112.5 183t41.5 260.5q0 99 -51 158.5t-140 59.5
q-84 0 -151 -62.5t-106 -170t-39 -241.5q0 -116 46 -185.5t126 -69.5zM445 922l56 31l1 -12q44 9 83 4t81 -26l-7 -14q-42 20 -77 24.5t-77 -3.5l4 -10zM732 829q-18 0 -30 12t-12 29q0 18 12 30t30 12q17 0 29 -12t12 -30q0 -17 -12 -29t-29 -12z" />
    <glyph glyph-name="p" unicode="p" horiz-adv-x="1143" vert-adv-y="0" 
d="M23 -857q-33 0 -56 19.5t-16 58.5l304 1705q4 24 18.5 40.5t33.5 25.5t37 9q32 0 54.5 -20t16.5 -58l-20 -113q77 102 157 152.5t177 50.5q106 0 171.5 -52t91 -135.5t9.5 -176.5l-65 -383l75 63q16 14 30.5 24t28.5 17t27.5 10.5t25.5 3.5q28 0 45.5 -16t17.5 -48
q0 -28 -19 -54.5t-56 -57.5l-227 -188q-22 -17 -39.5 -22.5t-36.5 -5.5q-52 0 -62 32.5t-6 58.5l102 578q9 48 2.5 94.5t-35.5 77t-89 30.5q-79 0 -167 -71.5t-203 -238.5l-238 -1337q-6 -37 -34 -55t-55 -18zM23 -838q23 0 44.5 14t26.5 42l239 1343q116 170 209 245.5
t178 75.5q68 0 101 -35.5t41 -87t-1 -100.5l-103 -579q-4 -24 3 -47t47 -23q17 0 31 4.5t33 19.5l228 188q35 29 51.5 52.5t16.5 45.5q0 24 -11 34.5t-34 10.5q-21 0 -45.5 -11.5t-55.5 -38.5l-112 -95l74 432q15 90 -9 168t-85.5 126t-160.5 48q-94 0 -171.5 -50
t-155.5 -155q-17 -22 -24.5 -21t-3.5 28l23 131q5 28 -10.5 41.5t-42.5 13.5q-15 0 -30.5 -6.5t-26.5 -19.5t-15 -33l-303 -1705q-5 -29 11 -42.5t43 -13.5zM277 585l-9 64l12 -1l34 195l16 -3l-34 -195l12 -2zM337 879q-17 0 -29 12t-12 29q0 18 12 30t29 12t29.5 -12
t12.5 -30q0 -17 -12.5 -29t-29.5 -12z" />
    <glyph glyph-name="q" unicode="q" horiz-adv-x="1002" vert-adv-y="0" 
d="M576 -857q-52 0 -62 33.5t-6 58.5l196 1106q-58 -93 -126 -175.5t-141 -134t-148 -51.5q-120 0 -181.5 118.5t-25.5 320.5q33 178 111.5 308.5t192.5 202t250 71.5h260q55 0 66 -29t7 -49l-264 -1504l74 62q16 14 30.5 23.5t29 16.5t27.5 10t26 3q28 0 45.5 -16t17.5 -45
q0 -28 -18.5 -54.5t-55.5 -58.5l-229 -191q-19 -16 -38 -21t-38 -5zM576 -838q18 0 33 4t31 17l229 191q68 55 68 99q0 21 -11.5 31.5t-33.5 10.5t-46.5 -11t-54.5 -37l-113 -95l273 1554q3 17 -5 36.5t-50 19.5h-260q-132 0 -241.5 -68.5t-186 -195.5t-108.5 -303
q-34 -196 22 -306.5t167 -110.5q74 0 146.5 54t140.5 140t126 182q19 31 24.5 28t0.5 -33l-201 -1137q-4 -24 3 -47t47 -23zM313 111q-53 0 -82.5 82.5t-5.5 225.5q39 209 152.5 330t269.5 121h169l-21 -113q-30 -77 -75 -165t-97.5 -173t-107.5 -154.5t-107 -111.5t-95 -42
zM313 129q39 0 88 40.5t102 108.5t104.5 151.5t95.5 169.5t75 162l16 90h-147q-149 0 -257.5 -116t-146.5 -319q-22 -138 2.5 -212.5t67.5 -74.5zM601 905l-62 19l62 20v-12h198v-15h-198v-12zM881 878q-18 0 -30 12t-12 29q0 18 12 30t30 12q17 0 29 -12t12 -30
q0 -17 -12 -29t-29 -12z" />
    <glyph glyph-name="r" unicode="r" horiz-adv-x="896" vert-adv-y="0" 
d="M162 0q-21 0 -38.5 10t-26.5 29.5t-4 46.5l148 832q7 40 34 61.5t55 21.5q30 0 52.5 -24.5t14.5 -71.5l-19 -111q45 72 95 120.5t100.5 73.5t96.5 25q51 0 72 -20t32 -40t33 -20q20 0 44 12.5t38 22.5q31 21 65 24.5t58 -11t24 -48.5q0 -24 -11.5 -44t-31 -36t-42.5 -30
q-38 -23 -80 -33t-67 -10q-45 0 -74 20.5t-48 41t-36 20.5q-21 0 -60 -24.5t-100.5 -93.5t-151.5 -204l-81 -457q-5 -40 -33.5 -61.5t-57.5 -21.5zM162 19q24 0 46.5 16.5t27.5 50.5l80 461q93 138 157.5 210t106.5 98t66 26q23 0 44.5 -21t48 -42t65.5 -21q23 0 62 9.5
t75 32.5q34 20 55 42t21 52q0 25 -18 35.5t-45 7t-54 -21.5q-15 -10 -42.5 -24.5t-50.5 -14.5q-32 0 -46.5 20t-32 39.5t-58.5 19.5q-67 0 -144.5 -57t-142.5 -171q-18 -29 -25.5 -27.5t-1.5 32.5l24 137q7 39 -10 57t-40 18t-44 -17t-27 -51l-147 -832q-7 -33 8.5 -48.5
t41.5 -15.5zM264 585l-9 64l12 -1l34 195l16 -3l-34 -195l12 -2zM323 879q-17 0 -29 12t-12 29q0 18 12 30t29 12q18 0 30 -12t12 -30q0 -17 -12 -29t-30 -12z" />
    <glyph glyph-name="s" unicode="s" horiz-adv-x="875" vert-adv-y="0" 
d="M418 -12q-58 0 -136.5 24.5t-150.5 79.5q-35 26 -60.5 56t-0.5 70q11 20 33.5 27t49 1.5t49.5 -22.5q32 -23 91 -55.5t125 -32.5q74 0 118.5 37t44.5 92q0 38 -18.5 63t-44.5 48q-29 23 -77.5 53.5t-107.5 65.5q-61 38 -118 105t-57 153q0 116 91.5 182t246.5 66
q57 0 124 -13.5t145 -58.5q44 -25 60.5 -60.5t-3.5 -67.5q-18 -29 -55 -33t-77 15q-25 14 -77 42t-117 28q-85 0 -132.5 -27t-47.5 -73q0 -37 38.5 -70.5t84.5 -65.5q56 -40 110.5 -69t101.5 -79q38 -36 64 -84t26 -128q0 -77 -42.5 -138t-115.5 -96t-165 -35zM418 6
q132 0 218.5 71t86.5 180q0 76 -24 120t-61 79q-45 47 -98 76.5t-111 69.5q-46 32 -88.5 69.5t-42.5 81.5q0 55 54.5 86.5t143.5 31.5q69 0 123.5 -29t78.5 -43q35 -16 65 -13.5t44 24.5q16 26 1.5 53.5t-52.5 49.5q-75 44 -139.5 56.5t-120.5 12.5q-151 0 -235.5 -60.5
t-84.5 -168.5q0 -80 53.5 -142.5t112.5 -99.5q59 -36 108 -67t80 -55q27 -23 48 -51.5t21 -72.5q0 -64 -51 -106t-130 -42q-70 0 -132.5 35t-95.5 58q-29 22 -60.5 22t-43.5 -22q-19 -31 1 -54t55 -50q71 -52 145.5 -76t130.5 -24zM679 870q-43 24 -91.5 36t-98.5 13v-12
l-61 17l62 22l-1 -12q106 0 196 -51zM756 799q-17 0 -29.5 12.5t-12.5 29.5t12.5 29t29.5 12t29 -12t12 -29t-12 -29.5t-29 -12.5z" />
    <glyph glyph-name="t" unicode="t" horiz-adv-x="578" vert-adv-y="0" 
d="M178 -1q-22 0 -41 9t-29 27t-6 44l140 782h-179q-46 0 -64.5 23t-18.5 53q0 28 18.5 49.5t64.5 21.5h205l99 551q5 32 27 49t48 17q23 0 43 -10.5t31.5 -30.5t6.5 -48l-93 -528h212q46 0 64.5 -21.5t18.5 -49.5q0 -30 -18.5 -53t-64.5 -23h-237l-137 -790q-7 -38 -34 -55
t-56 -17zM178 18q25 0 45.5 12.5t25.5 43.5l141 806h252q38 0 51.5 16t13.5 41q0 23 -13.5 38t-51.5 15h-234l96 549q6 33 -14 50.5t-48 17.5q-20 0 -36.5 -13t-21.5 -39l-101 -565h-220q-37 0 -51 -15t-14 -38q0 -25 14 -41t51 -16h201l-144 -805q-6 -29 12.5 -43t45.5 -14
zM385 1209l-9 65l12 -2l34 195l16 -3l-34 -195l12 -2zM445 1504q-17 0 -29 12.5t-12 29.5t12 29t29 12t29.5 -12t12.5 -29t-12.5 -29.5t-29.5 -12.5z" />
    <glyph glyph-name="u" unicode="u" horiz-adv-x="1062" vert-adv-y="0" 
d="M388 -18q-151 0 -225 100t-44 267l104 585q2 7 6 23t22 30t59 14q52 0 62.5 -30t6.5 -49l-103 -586q-16 -91 16.5 -148.5t105.5 -57.5q72 0 152 76.5t189 239.5l85 481q2 7 7.5 25t24 33.5t57.5 15.5q54 0 65 -29t7 -48l-149 -842q-4 -27 -17 -45t-34.5 -27.5t-52.5 -9.5
q-40 0 -52 24t-5 62l18 101q-77 -105 -149.5 -155t-155.5 -50zM388 0q79 0 149 49t146 156q23 32 29 28.5t1 -35.5l-20 -115q-7 -34 1.5 -49.5t37.5 -15.5q27 0 44.5 7t27.5 22t14 39l149 841q3 17 -5 36t-49 19q-47 0 -58 -23.5t-13 -34.5l-86 -486q-110 -165 -195 -246
t-163 -81q-82 0 -119 65.5t-20 162.5l103 586q2 17 -5.5 37t-46.5 20q-49 0 -58.5 -20t-11.5 -31l-103 -586q-28 -160 40 -252.5t211 -92.5zM241 585l-9 64l12 -1l34 195l16 -3l-34 -195l12 -2zM300 879q-18 0 -30 12t-12 29q0 18 12 30t30 12q17 0 29 -12t12 -30
q0 -17 -12 -29t-29 -12z" />
    <glyph glyph-name="v" unicode="v" horiz-adv-x="1186" vert-adv-y="0" 
d="M312 -12q-78 0 -127.5 45.5t-69 116.5t-6.5 147l112 621q8 41 35.5 62t55.5 21q32 0 54 -24.5t14 -71.5l-109 -612q-13 -80 11 -118.5t70 -38.5q68 0 140 86.5t165 256t223 418.5q26 45 46.5 74.5t63.5 29.5q6 0 27 -4t71.5 -13.5t142.5 -27.5q41 -8 57 -30t16 -48
q0 -52 -41 -72.5t-88 -9.5l-149 35l-9 -18q-138 -275 -253.5 -458.5t-224 -275t-227.5 -91.5zM312 6q114 0 219 89.5t218.5 270.5t251.5 455l14 30l164 -37q43 -10 75 5.5t32 58.5q0 22 -12.5 37.5t-46.5 22.5q-92 18 -142 27.5t-70 13t-25 3.5q-34 0 -51 -23.5t-43 -70.5
q-130 -249 -224 -421t-169.5 -261t-150.5 -89q-54 0 -84 46t-15 134l109 610q7 40 -8.5 57.5t-41.5 17.5q-23 0 -45 -16.5t-29 -50.5l-111 -622q-12 -72 5.5 -137.5t62.5 -107.5t117 -42zM239 585l-9 64l12 -1l34 195l16 -3l-34 -195l12 -2zM303 879q-17 0 -29 12t-12 29
q0 18 12 30t29 12t29.5 -12t12.5 -30q0 -17 -12.5 -29t-29.5 -12z" />
    <glyph glyph-name="w" unicode="w" horiz-adv-x="1936" vert-adv-y="0" 
d="M293 -12q-79 0 -123.5 47.5t-58.5 118.5t-1 143l110 621q7 41 36 62t56 21q32 0 54 -24.5t14 -71.5l-109 -612q-15 -80 9.5 -118.5t53.5 -38.5q52 0 110.5 53t119 139.5t118.5 188.5t108.5 202t89.5 178q24 46 46.5 75t65.5 29q30 0 54 -24.5t15 -71.5l-111 -612
q-10 -52 6.5 -87t43 -52.5t44.5 -17.5q55 0 111.5 54t112 141.5t107.5 190t98.5 201.5t84.5 174q27 45 47.5 74.5t63.5 29.5q6 0 33.5 -5t79 -15t127.5 -25q41 -8 58 -30t17 -50q0 -51 -39 -70.5t-90 -9.5l-151 35l-9 -18q-12 -27 -44 -97t-80.5 -163.5t-110.5 -192
t-134.5 -183t-153 -137t-165.5 -52.5q-79 0 -132.5 47.5t-76 118.5t-8.5 143l42 220q-78 -137 -161.5 -258t-177 -196t-200.5 -75zM293 6q106 0 198.5 78t176.5 203.5t164 267.5q17 29 23.5 24.5t1.5 -27.5l-50 -259q-13 -68 7.5 -134.5t70 -109.5t122.5 -43q82 0 159.5 52
t148 135.5t130.5 180.5t107.5 189.5t80 162t46.5 95.5l15 30l165 -37q46 -10 76.5 5t30.5 57q0 23 -13 39t-48 23q-76 15 -127 24.5t-77.5 14.5t-31.5 5q-34 0 -51 -24t-44 -70q-38 -75 -84.5 -175t-99.5 -204t-110.5 -193t-117 -144t-118.5 -55q-22 0 -53 20.5t-50.5 60.5
t-9.5 99l111 611q8 39 -8.5 56.5t-41.5 17.5q-34 0 -53 -24t-42 -69q-39 -78 -90.5 -179t-110 -204.5t-121 -192t-124 -142.5t-117.5 -54q-37 0 -67 46t-14 134l109 611q8 39 -8 56.5t-42 17.5q-22 0 -44.5 -16.5t-28.5 -50.5l-111 -622q-12 -69 0 -135t52.5 -109t112.5 -43
zM239 585l-10 64l12 -1l35 195l15 -3l-34 -195l12 -2zM302 879q-17 0 -29 12t-12 29q0 18 12 30t29 12t29.5 -12t12.5 -30q0 -17 -12.5 -29t-29.5 -12z" />
    <glyph glyph-name="x" unicode="x" horiz-adv-x="1207" vert-adv-y="0" 
d="M205 -12q-60 0 -117 10t-104 35q-22 13 -36.5 29t-17.5 36t7 44q15 36 44 43.5t68 -12.5q77 -37 156 -37q65 0 133.5 74.5t117 201.5t53.5 285q1 39 -7 77.5t-27.5 64.5t-56.5 26q-53 0 -102.5 -51t-99.5 -143q-13 -26 -42.5 -29t-59.5 13q-17 10 -27.5 24.5t-13 31.5
t3.5 32q134 270 353 270q66 0 123 -41t77 -143q56 86 130 135t159 49q68 0 125.5 -10t104.5 -29q25 -10 39 -27t16.5 -37.5t-7.5 -43.5q-16 -36 -46 -41.5t-68 9.5q-36 14 -77.5 22.5t-86.5 8.5q-74 0 -139.5 -74.5t-107.5 -201.5t-46 -286q-4 -58 15.5 -112.5t71.5 -54.5
q54 0 126.5 84t144.5 226q14 25 43 28t59 -12q17 -9 28 -24.5t14 -32.5t-4 -31q-90 -178 -202.5 -282t-220.5 -104q-68 0 -126.5 44.5t-76.5 154.5q-58 -92 -134 -145.5t-159 -53.5zM205 6q79 0 150.5 51.5t128.5 142.5q14 21 20.5 21t10.5 -23q16 -109 68.5 -150.5
t117.5 -41.5q103 0 210.5 100.5t195.5 275.5q8 14 -0.5 33t-29.5 30q-26 14 -47 12t-30 -19q-73 -143 -149.5 -231.5t-137.5 -88.5q-42 0 -66 29.5t-32.5 73t-6.5 83.5q4 161 47.5 292t113.5 208.5t150 77.5q47 0 90 -8.5t80 -22.5q35 -13 57.5 -9.5t33.5 31.5
q9 18 7.5 34.5t-13 29.5t-32.5 20q-45 20 -100.5 28.5t-122.5 8.5q-83 0 -154.5 -48.5t-126.5 -137.5q-10 -16 -15.5 -15.5t-7.5 15.5q-16 106 -68 146t-117 40q-206 0 -337 -259q-7 -16 0.5 -34.5t29.5 -29.5q26 -15 47 -12.5t30 20.5q50 94 103.5 148.5t114.5 54.5
q45 0 68.5 -30t32.5 -72.5t8 -82.5q-4 -121 -34 -226t-77.5 -184.5t-102.5 -124t-108 -44.5q-40 0 -82 9.5t-83 29.5q-63 32 -86 -22q-8 -19 -6.5 -34.5t13 -27.5t31.5 -23q46 -24 100.5 -34t112.5 -10zM155 682q-17 0 -29 12t-12 29t12 29.5t29 12.5t29.5 -12.5t12.5 -29.5
t-12.5 -29t-29.5 -12zM204 789l-13 8q24 41 51 69.5t65 47.5l-7 11l64 11l-45 -46l-6 11q-37 -20 -60.5 -46t-48.5 -66z" />
    <glyph glyph-name="y" unicode="y" horiz-adv-x="1059" vert-adv-y="0" 
d="M296 -857q-90 0 -171.5 26t-134.5 69q-25 20 -26.5 52t20.5 57q16 21 46 27t57 -11q38 -28 94.5 -44t117.5 -16q88 0 148 41t100 131t66 237l82 467q-78 -104 -151 -151.5t-155 -47.5q-152 0 -227 97t-45 266l105 590q2 7 6 23.5t22 30.5t60 14q53 0 63.5 -30.5
t6.5 -49.5l-104 -591q-16 -92 16.5 -146.5t105.5 -54.5q74 0 154 74t190 236l83 478q5 27 17 45.5t33.5 28.5t51.5 10q41 0 53.5 -23.5t5.5 -63.5l-214 -1217q-51 -294 -166.5 -424t-309.5 -130zM296 -838q187 0 297 124.5t161 413.5l214 1218q6 33 -2 48.5t-39 15.5
q-26 0 -43 -7.5t-26.5 -22.5t-14.5 -38l-85 -482q-112 -165 -196 -243t-164 -78q-82 0 -119 62.5t-20 160.5l102 590q3 17 -4.5 37.5t-46.5 20.5q-49 0 -59 -20t-12 -31l-103 -592q-28 -160 40 -250.5t213 -90.5q80 0 151.5 48t150.5 158q18 25 24.5 22t1.5 -32l-86 -485
q-20 -112 -48.5 -192.5t-68 -131.5t-93 -75.5t-122.5 -24.5q-63 0 -122.5 17t-99.5 46q-21 13 -43 8.5t-36 -20.5q-17 -22 -16.5 -45.5t19.5 -37.5q51 -42 129 -66.5t166 -24.5zM240 585l-9 64l12 -1l34 195l16 -3l-34 -195l12 -2zM299 879q-17 0 -29 12t-12 29q0 18 12 30
t29 12q18 0 30 -12t12 -30q0 -17 -12 -29t-30 -12z" />
    <glyph glyph-name="z" unicode="z" horiz-adv-x="953" vert-adv-y="0" 
d="M93 0q-34 0 -52.5 23.5t-18 56t23.5 58.5l624 715h-417q-46 0 -63.5 20t-17.5 48q0 26 17 53t64 27h582q41 0 60 -21.5t16.5 -52.5t-27.5 -59l-625 -720h448q47 0 65 -20t18 -48t-18 -54t-65 -26h-614zM93 19h614q38 0 51.5 18t13.5 43q0 23 -13 36.5t-52 13.5h-456
q-22 0 -23.5 3.5t8.5 16.5l635 730q21 24 24 47.5t-12 39t-48 15.5h-582q-37 0 -50 -19t-13 -42q0 -22 12.5 -36t50.5 -14h425q21 0 23 -3.5t-12 -20.5l-629 -721q-19 -22 -20 -47t13 -42.5t40 -17.5zM258 885q-17 0 -29.5 12.5t-12.5 29.5t12.5 29t29.5 12t29 -12t12 -29
t-12 -29.5t-29 -12.5zM537 908v12h-198v16h198v12l62 -20z" />
    <glyph glyph-name="uni00A0" unicode="&#xa0;" horiz-adv-x="360" vert-adv-y="3479" 
 />
    </font>
</defs>
</svg>
